<svg width="16" height="16" viewBox="0 0 16 16" fill="none" xmlns="http://www.w3.org/2000/svg">
<rect x="0.5" y="0.5" width="15" height="15" rx="7.5" stroke="#FDFDFD"/>
<path d="M10.0025 5.5475C9.9135 5.5475 9.8265 5.57389 9.75249 5.62334C9.67849 5.67279 9.62081 5.74307 9.58675 5.82529C9.55269 5.90752 9.54378 5.998 9.56115 6.08529C9.57851 6.17258 9.62137 6.25276 9.6843 6.3157C9.74724 6.37863 9.82742 6.42149 9.91471 6.43885C10.002 6.45622 10.0925 6.44731 10.1747 6.41325C10.2569 6.37919 10.3272 6.32151 10.3767 6.24751C10.4261 6.1735 10.4525 6.0865 10.4525 5.9975C10.4525 5.87815 10.4051 5.76369 10.3207 5.6793C10.2363 5.59491 10.1218 5.5475 10.0025 5.5475ZM11.7275 6.455C11.7202 6.14386 11.6619 5.83603 11.555 5.54375C11.4596 5.29367 11.3112 5.06723 11.12 4.88C10.9343 4.68778 10.7073 4.54032 10.4562 4.44875C10.1647 4.33856 9.85657 4.27895 9.545 4.2725C9.1475 4.25 9.02 4.25 8 4.25C6.98 4.25 6.8525 4.25 6.455 4.2725C6.14343 4.27895 5.83525 4.33856 5.54375 4.44875C5.29313 4.54124 5.06635 4.68859 4.88 4.88C4.68778 5.06569 4.54032 5.29266 4.44875 5.54375C4.33856 5.83525 4.27895 6.14343 4.2725 6.455C4.25 6.8525 4.25 6.98 4.25 8C4.25 9.02 4.25 9.1475 4.2725 9.545C4.27895 9.85657 4.33856 10.1647 4.44875 10.4562C4.54032 10.7073 4.68778 10.9343 4.88 11.12C5.06635 11.3114 5.29313 11.4588 5.54375 11.5512C5.83525 11.6614 6.14343 11.721 6.455 11.7275C6.8525 11.75 6.98 11.75 8 11.75C9.02 11.75 9.1475 11.75 9.545 11.7275C9.85657 11.721 10.1647 11.6614 10.4562 11.5512C10.7073 11.4597 10.9343 11.3122 11.12 11.12C11.3121 10.9335 11.4606 10.7068 11.555 10.4562C11.6619 10.164 11.7202 9.85614 11.7275 9.545C11.7275 9.1475 11.75 9.02 11.75 8C11.75 6.98 11.75 6.8525 11.7275 6.455ZM11.0525 9.5C11.0498 9.73804 11.0067 9.97389 10.925 10.1975C10.8651 10.3607 10.769 10.5082 10.6437 10.6287C10.5221 10.7527 10.375 10.8487 10.2125 10.91C9.98889 10.9917 9.75304 11.0348 9.515 11.0375C9.14 11.0563 9.00125 11.06 8.015 11.06C7.02875 11.06 6.89 11.06 6.515 11.0375C6.26783 11.0421 6.02172 11.0041 5.7875 10.925C5.63217 10.8605 5.49176 10.7648 5.375 10.6437C5.25053 10.5233 5.15557 10.3757 5.0975 10.2125C5.00595 9.98568 4.95517 9.74448 4.9475 9.5C4.9475 9.125 4.925 8.98625 4.925 8C4.925 7.01375 4.925 6.875 4.9475 6.5C4.94918 6.25665 4.99361 6.01548 5.07875 5.7875C5.14477 5.62922 5.2461 5.48812 5.375 5.375C5.48893 5.24606 5.62973 5.14366 5.7875 5.075C6.01608 4.99252 6.257 4.9494 6.5 4.9475C6.875 4.9475 7.01375 4.925 8 4.925C8.98625 4.925 9.125 4.925 9.5 4.9475C9.73804 4.95023 9.97389 4.99334 10.1975 5.075C10.3679 5.13824 10.5209 5.24107 10.6437 5.375C10.7666 5.49019 10.8627 5.63102 10.925 5.7875C11.0083 6.01585 11.0515 6.25692 11.0525 6.5C11.0712 6.875 11.075 7.01375 11.075 8C11.075 8.98625 11.0712 9.125 11.0525 9.5ZM8 6.07625C7.61968 6.07699 7.24811 6.19045 6.93225 6.40228C6.61638 6.61412 6.37039 6.91482 6.22536 7.26641C6.08033 7.61799 6.04277 8.00467 6.11742 8.3776C6.19207 8.75052 6.37559 9.09295 6.64478 9.36162C6.91397 9.63028 7.25675 9.81313 7.62982 9.88706C8.00289 9.96098 8.3895 9.92267 8.7408 9.77695C9.0921 9.63124 9.39233 9.38467 9.60355 9.06839C9.81477 8.75211 9.9275 8.38032 9.9275 8C9.928 7.74691 9.87845 7.49623 9.78171 7.26236C9.68498 7.02849 9.54296 6.81605 9.36383 6.63727C9.18469 6.45848 8.97198 6.31688 8.73792 6.2206C8.50387 6.12432 8.25308 6.07526 8 6.07625ZM8 9.24875C7.75302 9.24875 7.51159 9.17551 7.30623 9.0383C7.10088 8.90108 6.94082 8.70606 6.84631 8.47788C6.75179 8.2497 6.72706 7.99861 6.77524 7.75638C6.82343 7.51415 6.94236 7.29164 7.117 7.117C7.29164 6.94236 7.51415 6.82343 7.75638 6.77524C7.99861 6.72706 8.2497 6.75179 8.47788 6.84631C8.70606 6.94082 8.90108 7.10088 9.0383 7.30623C9.17551 7.51159 9.24875 7.75302 9.24875 8C9.24875 8.16399 9.21645 8.32637 9.15369 8.47788C9.09094 8.62938 8.99896 8.76704 8.883 8.883C8.76704 8.99896 8.62938 9.09094 8.47788 9.15369C8.32637 9.21645 8.16399 9.24875 8 9.24875Z" fill="#FDFDFD"/>
</svg>
