<svg width="375" height="98" viewBox="0 0 375 98" fill="none" xmlns="http://www.w3.org/2000/svg">
<g clip-path="url(#clip0_40_2836)">
<rect width="375" height="98" fill="#EAE4D8"/>
<path d="M367.589 40.8229C371.189 38.2898 370.189 31.7763 373.396 31.7763C376.603 31.7763 376.009 37.4756 379.203 40.8229C376.938 45.5272 375.487 53.6691 373.396 55.7499C371.48 53.2168 370.26 46.7937 367.589 40.8229Z" fill="#E1E3D0" fill-opacity="0.18"/>
<path d="M371.947 56.8456C371.323 56.0199 370.816 54.9673 370.372 53.87C369.921 52.7559 369.488 51.4764 369.05 50.1434C368.159 47.438 367.219 44.4443 365.931 41.5643L365.319 40.1981L366.544 39.3368C367.737 38.4972 368.249 36.9363 368.904 34.8134C369.187 33.8967 369.541 32.7537 370.109 31.8593C370.752 30.8482 371.802 29.9598 373.396 29.9598C374.869 29.9599 375.933 30.6707 376.654 31.621C377.293 32.4621 377.698 33.5359 378.018 34.4393C378.73 36.4549 379.256 38.2466 380.518 39.5692L381.385 40.4784L380.84 41.6112C379.781 43.8109 378.902 46.8426 377.967 49.8153C377.513 51.2587 377.045 52.6848 376.547 53.8934C376.072 55.0462 375.477 56.2418 374.678 57.037L373.203 58.5057L371.947 56.8456Z" stroke="#5E7B63" stroke-opacity="0.18" stroke-width="3.63309"/>
<path d="M333.733 86.6044C331.366 82.7508 325.281 83.8216 325.281 80.389C325.281 76.9563 330.606 77.592 333.733 74.1736C338.128 76.5976 345.735 78.1514 347.679 80.389C345.313 82.44 339.312 83.7453 333.733 86.6044Z" fill="#E1E3D0" fill-opacity="0.18"/>
<path d="M348.869 81.7615C348.086 82.4401 347.086 82.9912 346.05 83.4714C345 83.9582 343.797 84.4237 342.551 84.8933C340.019 85.8481 337.238 86.849 334.562 88.2205L333.065 88.988L332.185 87.5554C331.398 86.2734 329.978 85.7468 328.013 85.0515C327.159 84.7494 326.059 84.3617 325.199 83.7351C324.209 83.0138 323.464 81.9273 323.464 80.3894C323.464 78.9589 324.062 77.8696 324.97 77.0798C325.774 76.3812 326.802 75.9366 327.652 75.5925C329.541 74.8275 331.173 74.2807 332.393 72.947L333.358 71.8923L334.61 72.5828C336.645 73.7051 339.452 74.6367 342.242 75.6423C343.591 76.1287 344.933 76.6332 346.074 77.1716C347.166 77.6875 348.302 78.3365 349.05 79.198L350.244 80.5701L348.869 81.7615Z" stroke="#5E7B63" stroke-opacity="0.18" stroke-width="3.63309"/>
<path d="M341.189 56.4832C342.062 51.9672 337.051 48.1186 339.319 45.6913C341.587 43.2641 344.932 47.7437 349.402 47.6933C350.908 52.7338 355.261 59.5898 355.157 62.6432C352.129 62.3024 347.023 58.6835 341.189 56.4832Z" fill="#E1E3D0" fill-opacity="0.18"/>
<path d="M354.974 64.5107C353.979 64.3987 352.916 64.0337 351.872 63.5916C350.813 63.1431 349.658 62.5644 348.467 61.9539C346.048 60.7136 343.413 59.3125 340.606 58.254L339.162 57.7081L339.472 56.1033C339.761 54.6051 339.099 53.1368 338.164 51.1475C337.76 50.2864 337.246 49.1955 337.054 48.1169C336.835 46.8837 337.01 45.5081 338.079 44.3642C339.069 43.3042 340.25 42.9919 341.403 43.1197C342.422 43.2326 343.431 43.6912 344.256 44.0894C346.095 44.9769 347.629 45.8359 349.383 45.8163L350.678 45.802L351.072 47.1207C351.773 49.4663 353.149 52.2631 354.454 55.0793C355.087 56.4439 355.7 57.8114 356.148 59.0489C356.577 60.2317 356.949 61.5389 356.91 62.711L356.842 64.7205L354.974 64.5107Z" stroke="#5E7B63" stroke-opacity="0.18" stroke-width="3.63309"/>
<path d="M348.365 111.774C344.145 110.84 340.55 116.203 338.282 113.776C336.014 111.349 340.199 107.768 340.152 102.984C344.861 101.372 351.267 96.7134 354.12 96.8243C353.801 100.066 350.42 105.531 348.365 111.774Z" fill="#E1E3D0" fill-opacity="0.18"/>
<path d="M355.865 97.0205C355.76 98.0855 355.419 99.2225 355.006 100.34C354.587 101.474 354.046 102.71 353.476 103.984C352.317 106.574 351.008 109.394 350.019 112.398L349.509 113.944L348.01 113.613C346.61 113.303 345.238 114.011 343.379 115.012C342.575 115.445 341.556 115.995 340.548 116.2C339.396 116.434 338.111 116.247 337.042 115.103C336.052 114.043 335.76 112.78 335.879 111.545C335.985 110.455 336.413 109.375 336.785 108.492C337.614 106.524 338.417 104.882 338.399 103.005L338.385 101.619L339.617 101.196C341.809 100.446 344.422 98.9736 347.053 97.5764C348.328 96.8994 349.605 96.2431 350.762 95.7632C351.867 95.3045 353.088 94.9058 354.183 94.9483L356.061 95.021L355.865 97.0205Z" stroke="#5E7B63" stroke-opacity="0.18" stroke-width="3.63309"/>
<ellipse cx="3.00719" cy="3.1077" rx="3.00719" ry="3.1077" transform="matrix(-1 0 0 1 338.139 92.5979)" fill="#0E0F11" fill-opacity="0.04"/>
<ellipse cx="3.00719" cy="3.10769" rx="3.00719" ry="3.10769" transform="matrix(-1 0 0 1 337.725 61.5215)" fill="#0E0F11" fill-opacity="0.04"/>
<ellipse cx="3.00719" cy="3.10769" rx="3.00719" ry="3.10769" transform="matrix(-1 0 0 1 360.953 39.7666)" fill="#0E0F11" fill-opacity="0.04"/>
<ellipse cx="8.39938" cy="9.21208" rx="8.39938" ry="9.21208" transform="matrix(-1 0 0 1 381.899 70.3997)" fill="#CECFC1" fill-opacity="0.18"/>
<path d="M376.387 94.9676C378.062 92.2827 375.768 88.3049 377.832 87.39C379.896 86.4752 380.957 90.3749 383.86 91.6547C383.594 95.3796 384.722 101.123 383.904 103.081C382.03 101.97 379.618 98.1135 376.387 94.9676Z" fill="#787374" fill-opacity="0.18"/>
<path d="M371.507 64.3931C369.832 67.078 372.126 71.0558 370.062 71.9707C367.999 72.8855 366.937 68.9858 364.034 67.7061C364.3 63.9811 363.172 58.238 363.99 56.2798C365.864 57.3911 368.276 61.2472 371.507 64.3931Z" fill="#787374" fill-opacity="0.18"/>
<path d="M383.238 67.7055C380.28 68.3364 379.273 72.885 377.21 71.9701C375.146 71.0553 376.972 67.4945 375.765 64.3926C378.414 61.9597 381.41 57.0448 383.282 56.2793C383.874 58.4838 383.031 63.0356 383.238 67.7055Z" fill="#787374" fill-opacity="0.18"/>
<path d="M364.034 91.653C366.992 91.0221 367.999 86.4735 370.062 87.3884C372.126 88.3032 370.3 91.8641 371.507 94.9659C368.858 97.3989 365.862 102.314 363.99 103.079C363.398 100.875 364.241 96.3229 364.034 91.653Z" fill="#787374" fill-opacity="0.18"/>
<path d="M359.696 82.4806C362.204 84.2733 365.921 81.8184 366.775 84.0271C367.63 86.2357 363.987 87.3718 362.791 90.4787C359.311 90.1944 353.945 91.402 352.115 90.5264C353.154 88.52 356.756 85.9389 359.696 82.4806Z" fill="#787374" fill-opacity="0.18"/>
<path d="M361.961 71.2558C362.551 74.4219 366.8 75.4988 365.946 77.7074C365.091 79.9161 361.764 77.9619 358.866 79.2539C356.593 76.4189 352.001 73.2118 351.286 71.2081C353.346 70.5751 357.598 71.4766 361.961 71.2558Z" fill="#787374" fill-opacity="0.18"/>
<ellipse cx="-2.96006" cy="51.8746" rx="23.265" ry="23.203" fill="#5E7B63" fill-opacity="0.1"/>
<ellipse cx="-2.96013" cy="51.8748" rx="14.5794" ry="13.6124" fill="#E6E1CF"/>
<path d="M-0.828243 75.0771L7.6241 85.2001C8.5324 86.288 8.38434 87.9067 7.29377 88.8117C5.92084 89.951 6.1047 92.11 7.65051 93.0007L13.9931 96.6556C16.8382 98.295 18.3202 101.567 17.676 104.787L17.4134 106.099C16.5236 110.547 12.6181 113.749 8.08204 113.749H-0.828243H-8.21569C-13.3651 113.749 -17.5395 109.574 -17.5396 104.425L-17.5396 103.574C-17.5396 100.968 -16.229 98.5365 -14.0521 97.1041L-8.19128 93.2475C-6.63642 92.2243 -6.54704 89.9762 -8.01577 88.8329C-9.19607 87.9141 -9.41198 86.2142 -8.49888 85.0295L-0.828243 75.0771Z" fill="#DFDDC1" fill-opacity="0.4"/>
<path d="M6.73486 85.9424C7.23236 86.5382 7.15153 87.4252 6.5542 87.9209C4.56056 89.5755 4.82789 92.7103 7.07275 94.0039L13.4146 97.6592C15.8291 99.0505 17.0872 101.827 16.5405 104.56L16.2778 105.872C15.4963 109.779 12.0663 112.591 8.08252 112.591H-8.21533C-12.7252 112.591 -16.3813 108.935 -16.3813 104.425V103.573C-16.3812 101.357 -15.2668 99.2895 -13.4155 98.0713L-7.55518 94.2148C-5.33774 92.7557 -5.20965 89.5495 -7.3042 87.9189C-7.98152 87.3917 -8.10553 86.4162 -7.58154 85.7363L-0.79248 76.9268L6.73486 85.9424Z" stroke="#DCDACC" stroke-opacity="0.6" stroke-width="2.31616"/>
<path d="M15.6814 65.6843L28.8365 66.8817C30.2505 67.0104 31.2919 68.2582 31.1623 69.6683C30.9991 71.4441 32.6588 72.8394 34.3861 72.3784L41.4577 70.491C44.6347 69.6431 48.0003 70.9082 49.8259 73.6365L50.5703 74.749C53.097 78.5253 52.5987 83.5554 49.38 86.7656L43.0995 93.0293L37.8969 98.2181C34.244 101.861 28.3217 101.861 24.6689 98.2181L24.0657 97.6166C22.2197 95.7755 21.4243 93.1327 21.9485 90.5819L23.3576 83.7259C23.7321 81.9036 22.2031 80.2523 20.352 80.4799C18.8648 80.6627 17.5082 79.6147 17.3139 78.1328L15.6814 65.6843Z" fill="#DFDDC1" fill-opacity="0.4"/>
<path d="M28.7316 68.0335C29.5072 68.1044 30.0782 68.7888 30.0073 69.5624C29.7704 72.1394 32.1792 74.1647 34.6857 73.4959L41.7572 71.6085C44.4542 70.8887 47.3115 71.9625 48.8612 74.2787L49.6059 75.391C51.8255 78.7084 51.3878 83.1274 48.5604 85.9476L37.0767 97.4006C33.8768 100.592 28.6885 100.591 25.4886 97.3999L24.8857 96.7986C23.3152 95.2323 22.6392 92.9841 23.0851 90.8142L24.4936 83.9587C25.0274 81.3616 22.8483 79.0078 20.2101 79.3321C19.3553 79.4372 18.5753 78.8349 18.4634 77.9832L17.019 66.9681L28.7316 68.0335Z" stroke="#DCDACC" stroke-opacity="0.6" stroke-width="2.31616"/>
<path d="M-1.67957 28.6716L-10.1319 18.5487C-11.0402 17.4608 -10.8922 15.8421 -9.80158 14.9371C-8.42865 13.7978 -8.61251 11.6388 -10.1583 10.7481L-16.501 7.09321C-19.346 5.45376 -20.828 2.18187 -20.1838 -1.03797L-19.9212 -2.3506C-19.0314 -6.79848 -15.1259 -10 -10.5899 -10H-1.67957H5.70787C10.8573 -10 15.0317 -5.8256 15.0317 -0.676172L15.0317 0.17511C15.0317 2.78104 13.7212 5.21226 11.5443 6.64472L5.68347 10.5013C4.12861 11.5244 4.03923 13.7725 5.50796 14.9159C6.68825 15.8347 6.90417 17.5346 5.99107 18.7193L-1.67957 28.6716Z" fill="#DFDDC1" fill-opacity="0.4"/>
<path d="M-9.24268 17.8064C-9.74017 17.2106 -9.65935 16.3236 -9.06201 15.8279C-7.06837 14.1732 -7.3357 11.0384 -9.58057 9.74487L-15.9224 6.0896C-18.3369 4.69827 -19.595 1.92175 -19.0483 -0.810791L-18.7856 -2.12329C-18.0041 -6.02973 -14.5741 -8.84182 -10.5903 -8.84204H5.70752C10.2174 -8.84204 13.8735 -5.18586 13.8735 -0.676025V0.175537C13.8734 2.39163 12.759 4.45931 10.9077 5.67749L5.04736 9.53394C2.82993 10.9931 2.70184 14.1992 4.79639 15.8298C5.47371 16.3571 5.59772 17.3326 5.07373 18.0125L-1.71533 26.822L-9.24268 17.8064Z" stroke="#DCDACC" stroke-opacity="0.6" stroke-width="2.31616"/>
<path d="M20.3052 48.2014L30.4571 39.77C31.5485 38.8636 33.1676 39.0117 34.0765 40.1011C35.2214 41.4734 37.3823 41.2891 38.2782 39.7426L41.9381 33.4251C43.5849 30.5824 46.8579 29.1025 50.08 29.7437L51.394 30.0052C55.8622 30.8943 59.0802 34.8158 59.0802 39.3716V48.2014V55.5098C59.0802 60.6783 54.8903 64.8682 49.7218 64.8682L48.8695 64.8682C46.2609 64.8682 43.8263 63.5596 42.387 61.384L38.5248 55.5459C37.4963 53.9912 35.2467 53.9016 34.0978 55.3696C33.1751 56.5486 31.475 56.7646 30.2868 55.8537L20.3052 48.2014Z" fill="#DFDDC1" fill-opacity="0.4"/>
<path d="M31.1968 40.6611C31.7968 40.1628 32.6872 40.244 33.187 40.8428C34.8473 42.8328 37.9816 42.5658 39.2808 40.3232L42.9399 34.0059C44.3384 31.592 47.1179 30.3354 49.854 30.8799L51.1675 31.1406C55.0939 31.922 57.9224 35.3687 57.9224 39.3721V55.5098C57.9224 60.0386 54.2509 63.7098 49.7222 63.71H48.8696C46.6498 63.71 44.5779 62.5965 43.353 60.7451L39.4907 54.9072C38.0259 52.6931 34.8222 52.5656 33.186 54.6562C32.6547 55.3349 31.6758 55.4589 30.9917 54.9346L22.1616 48.166L31.1968 40.6611Z" stroke="#DCDACC" stroke-opacity="0.6" stroke-width="2.31616"/>
<path d="M12.7478 33.9387L13.9483 20.8187C14.0774 19.4085 15.3285 18.3699 16.7424 18.4991C18.523 18.6619 19.922 17.0066 19.4598 15.2839L17.5673 8.23118C16.7171 5.06262 17.9856 1.70598 20.7213 -0.114717L21.8367 -0.857093C25.6231 -3.37707 30.6667 -2.88014 33.8854 0.330027L40.1659 6.59372L45.3686 11.7825C49.0214 15.4256 49.0214 21.3322 45.3686 24.9752L44.7654 25.5768C42.9194 27.4179 40.2695 28.2112 37.7119 27.6884L30.8376 26.283C29.0104 25.9095 27.3547 27.4344 27.5829 29.2806C27.7662 30.7639 26.7154 32.1168 25.2296 32.3106L12.7478 33.9387Z" fill="#DFDDC1" fill-opacity="0.4"/>
<path d="M15.1033 20.9234C15.1743 20.1498 15.8605 19.5803 16.6362 19.6511C19.2201 19.8873 21.2509 17.485 20.5803 14.9851L18.6878 7.93248C17.966 5.24265 19.0428 2.39302 21.3651 0.847418L22.4804 0.104706C25.8066 -2.10898 30.2375 -1.67247 33.0652 1.1474L44.5489 12.6005C47.7486 15.7919 47.7481 20.9663 44.5482 24.1577L43.9453 24.759C42.3747 26.3252 40.1206 26.9995 37.9448 26.5547L31.071 25.15C28.467 24.6177 26.1069 26.791 26.4321 29.4222C26.5374 30.2746 25.9335 31.0525 25.0796 31.1641L14.035 32.6047L15.1033 20.9234Z" stroke="#DCDACC" stroke-opacity="0.6" stroke-width="2.31616"/>
<path d="M53.8335 27.6666H67.1668" stroke="#292D32" stroke-miterlimit="10" stroke-linecap="round" stroke-linejoin="round"/>
<path d="M54.4668 27.6666L54.5001 19.6466C54.5001 19.24 54.6935 18.8533 55.0135 18.6L59.6801 14.9666C60.1601 14.5933 60.8335 14.5933 61.3201 14.9666L65.9868 18.5933C66.3135 18.8466 66.5001 19.2333 66.5001 19.6466V27.6666" stroke="#292D32" stroke-miterlimit="10" stroke-linejoin="round"/>
<path d="M61.1668 24.3334H59.8335C59.2802 24.3334 58.8335 24.78 58.8335 25.3334V27.6667H62.1668V25.3334C62.1668 24.78 61.7202 24.3334 61.1668 24.3334Z" stroke="#292D32" stroke-miterlimit="10" stroke-linejoin="round"/>
<path d="M58.8335 22.1667H57.5002C57.1335 22.1667 56.8335 21.8667 56.8335 21.5V20.5C56.8335 20.1334 57.1335 19.8334 57.5002 19.8334H58.8335C59.2002 19.8334 59.5002 20.1334 59.5002 20.5V21.5C59.5002 21.8667 59.2002 22.1667 58.8335 22.1667Z" stroke="#292D32" stroke-miterlimit="10" stroke-linejoin="round"/>
<path d="M63.5 22.1667H62.1667C61.8 22.1667 61.5 21.8667 61.5 21.5V20.5C61.5 20.1334 61.8 19.8334 62.1667 19.8334H63.5C63.8667 19.8334 64.1667 20.1334 64.1667 20.5V21.5C64.1667 21.8667 63.8667 22.1667 63.5 22.1667Z" stroke="#292D32" stroke-miterlimit="10" stroke-linejoin="round"/>
<path d="M65.1667 17.6666L65.1467 15.6666H62.2134" stroke="#292D32" stroke-miterlimit="10" stroke-linecap="round" stroke-linejoin="round"/>
<path d="M18.0173 38.04C17.6873 38.04 17.4173 37.77 17.4173 37.44C17.4173 37.12 17.6873 36.85 18.0173 36.85C18.3373 36.85 18.6073 37.12 18.6073 37.44C18.6073 37.77 18.3373 38.04 18.0173 38.04ZM19.8073 38.04C19.4873 38.04 19.2073 37.77 19.2073 37.44C19.2073 37.12 19.4873 36.85 19.8073 36.85C20.1373 36.85 20.4073 37.12 20.4073 37.44C20.4073 37.77 20.1373 38.04 19.8073 38.04ZM21.6973 43.03H21.9773V44H21.6973C21.0973 44 20.5873 43.72 20.2773 43.27C19.9173 43.7 19.3973 43.96 18.6773 43.96C17.5473 43.96 16.6273 43.01 16.6273 41.85V41.03C16.6273 39.83 17.5273 38.92 18.7373 38.92H20.9473V42.28C20.9473 42.72 21.2573 43.03 21.6973 43.03ZM19.9873 42.38V39.88H18.7373C18.0673 39.88 17.5973 40.35 17.5973 41.03V41.85C17.5973 42.48 18.0873 43 18.6773 43C19.2073 43 19.6973 42.77 19.9873 42.38ZM25.3258 43.03H26.1158V44H25.1958C24.7458 44 24.3458 43.77 24.0558 43.44C23.7858 43.77 23.3858 44 22.7858 44H21.8958L21.4758 43.84V43.19L21.8958 43.03H22.7958C23.3758 43.03 23.5758 42.66 23.5758 42.2V39.27H24.5458V41.85C24.5458 41.93 24.5458 42.01 24.5358 42.1V42.2C24.5358 42.66 24.7558 43.03 25.3258 43.03ZM23.0058 44.93C23.3358 44.93 23.6058 45.2 23.6058 45.52C23.6058 45.85 23.3358 46.12 23.0058 46.12C22.6858 46.12 22.4058 45.85 22.4058 45.52C22.4058 45.2 22.6858 44.93 23.0058 44.93ZM24.7958 44.93C25.1258 44.93 25.3958 45.2 25.3958 45.52C25.3958 45.85 25.1258 46.12 24.7958 46.12C24.4758 46.12 24.1958 45.85 24.1958 45.52C24.1958 45.2 24.4758 44.93 24.7958 44.93ZM28.7876 38.05C28.4776 38.04 28.2176 37.79 28.2076 37.47C28.1876 37.14 28.4676 36.86 28.7976 36.85C29.1276 36.85 29.3976 37.12 29.3976 37.44C29.3976 37.78 29.1276 38.05 28.7876 38.05ZM28.8276 38.93C30.0076 38.93 30.9376 39.85 30.9376 41.04V42.02C30.9376 43.11 30.0576 43.99 28.9676 43.99H26.0076L25.5876 43.84V43.18L26.0076 43.03H27.1176C26.8176 42.75 26.6176 42.34 26.6176 41.87V41.04C26.6176 39.85 27.5376 38.93 28.7276 38.93H28.8276ZM29.9776 41.93V41.04C29.9776 40.38 29.4776 39.89 28.8276 39.89H28.7276C28.0676 39.89 27.5776 40.38 27.5776 41.04V41.87C27.5776 42.51 28.0776 43.03 28.6676 43.03H28.8776C29.4776 43.03 29.9776 42.54 29.9776 41.93ZM33.2252 44H32.2552V37.04H33.2252V44ZM37.0169 43.03V44H36.0569V44.17C36.0569 45.36 35.1669 46.26 33.9769 46.26H33.4669V45.29H33.9769C34.6269 45.29 35.0969 44.83 35.0969 44.17V39.2H36.0569V43.03H37.0169ZM38.156 38.46C37.826 38.46 37.556 38.19 37.556 37.86C37.556 37.54 37.826 37.26 38.156 37.26C38.476 37.26 38.746 37.54 38.746 37.86C38.746 38.19 38.476 38.46 38.156 38.46ZM39.946 38.46C39.626 38.46 39.346 38.19 39.346 37.86C39.346 37.54 39.626 37.26 39.946 37.26C40.276 37.26 40.546 37.54 40.546 37.86C40.546 38.19 40.276 38.46 39.946 38.46ZM40.286 43.03H41.336V44H40.156C39.696 44 39.296 43.77 39.006 43.44C38.746 43.77 38.346 44 37.746 44H36.886L36.466 43.84V43.19L36.886 43.03H37.756C38.316 43.03 38.526 42.67 38.536 42.22L38.526 39.27H39.496V42.2C39.496 42.66 39.716 43.03 40.286 43.03ZM46.0717 41.53C46.6817 42.97 46.8817 42.99 47.1517 43.03V44H41.2517L40.8317 43.84V43.19L41.2517 43.03H45.7217C45.5417 42.87 45.3117 42.27 45.0217 41.65C44.2317 40.05 43.2417 39.51 41.7517 40.09V39.21C43.4717 38.55 45.0817 39.31 46.0717 41.53ZM49.3287 44H48.3587V37.04H49.3287V44ZM60.8202 43.03H61.2502V44H60.7002C60.2402 44 59.8402 43.77 59.5502 43.44C59.2802 43.77 58.8802 44 58.2802 44H54.6502C53.4602 44 52.5602 43.11 52.5602 41.91V40.31H53.5302V41.91C53.5302 42.57 53.9902 43.03 54.6502 43.03H58.2802C58.8602 43.03 59.0702 42.66 59.0702 42.2V39.27H60.0402V41.85C60.0402 41.93 60.0402 42.01 60.0302 42.1V42.2C60.0302 42.66 60.2502 43.03 60.8202 43.03ZM56.3902 45.13C56.7102 45.13 56.9802 45.4 56.9802 45.72C56.9802 46.05 56.7102 46.32 56.3902 46.32C56.0602 46.32 55.7902 46.05 55.7902 45.72C55.7902 45.4 56.0602 45.13 56.3902 45.13ZM64.5738 43.03H65.3638V44H64.4438C63.9938 44 63.5938 43.77 63.3038 43.44C63.0338 43.77 62.6338 44 62.0338 44H61.1438L60.7238 43.84V43.19L61.1438 43.03H62.0438C62.6238 43.03 62.8238 42.66 62.8238 42.2V39.27H63.7938V41.85C63.7938 41.93 63.7938 42.01 63.7838 42.1V42.2C63.7838 42.66 64.0038 43.03 64.5738 43.03ZM62.2538 44.93C62.5838 44.93 62.8538 45.2 62.8538 45.52C62.8538 45.85 62.5838 46.12 62.2538 46.12C61.9338 46.12 61.6538 45.85 61.6538 45.52C61.6538 45.2 61.9338 44.93 62.2538 44.93ZM64.0438 44.93C64.3738 44.93 64.6438 45.2 64.6438 45.52C64.6438 45.85 64.3738 46.12 64.0438 46.12C63.7238 46.12 63.4438 45.85 63.4438 45.52C63.4438 45.2 63.7238 44.93 64.0438 44.93ZM67.2456 39.95L69.6056 39.94C70.5556 39.94 71.3256 40.71 71.3256 41.66V42.29C71.3256 43.23 70.5556 44.01 69.6056 44.01H65.2756L64.8556 43.85V43.19L65.2756 43.04H69.5056C69.9756 43.04 70.3556 42.66 70.3556 42.19V41.75C70.3556 41.29 69.9756 40.91 69.5056 40.91H65.9656L65.8656 40.5L67.7756 37.04L68.5356 37.36L67.2456 39.95ZM75.4153 43.03V44H74.4553V44.17C74.4553 45.36 73.5653 46.26 72.3753 46.26H71.8653V45.29H72.3753C73.0253 45.29 73.4953 44.83 73.4953 44.17V39.2H74.4553V43.03H75.4153ZM76.3245 38.55C75.9945 38.55 75.7245 38.28 75.7245 37.95C75.7245 37.63 75.9945 37.36 76.3245 37.36C76.6445 37.36 76.9145 37.63 76.9145 37.95C76.9145 38.28 76.6445 38.55 76.3245 38.55ZM78.1145 38.55C77.7945 38.55 77.5145 38.28 77.5145 37.95C77.5145 37.63 77.7945 37.36 78.1145 37.36C78.4445 37.36 78.7145 37.63 78.7145 37.95C78.7145 38.28 78.4445 38.55 78.1145 38.55ZM75.2245 44V43.03H76.5845C76.8045 43.03 77.0345 42.88 77.0345 42.56V39.26H77.9945V42.89C77.9945 43.52 77.5145 44 76.8845 44H75.2245ZM83.0466 38.04C82.7166 38.04 82.4466 37.77 82.4466 37.44C82.4466 37.12 82.7166 36.85 83.0466 36.85C83.3666 36.85 83.6366 37.12 83.6366 37.44C83.6366 37.77 83.3666 38.04 83.0466 38.04ZM84.8366 38.04C84.5166 38.04 84.2366 37.77 84.2366 37.44C84.2366 37.12 84.5166 36.85 84.8366 36.85C85.1666 36.85 85.4366 37.12 85.4366 37.44C85.4366 37.77 85.1666 38.04 84.8366 38.04ZM86.7266 43.03H87.0066V44H86.7266C86.1266 44 85.6166 43.72 85.3066 43.27C84.9466 43.7 84.4266 43.96 83.7066 43.96C82.5766 43.96 81.6566 43.01 81.6566 41.85V41.03C81.6566 39.83 82.5566 38.92 83.7666 38.92H85.9766V42.28C85.9766 42.72 86.2866 43.03 86.7266 43.03ZM85.0166 42.38V39.88H83.7666C83.0966 39.88 82.6266 40.35 82.6266 41.03V41.85C82.6266 42.48 83.1166 43 83.7066 43C84.2366 43 84.7266 42.77 85.0166 42.38ZM90.3451 38.92C91.5451 38.92 92.4551 39.83 92.4551 41.03V41.85C92.4551 43.01 91.5251 43.96 90.3951 43.96C89.7451 43.96 89.1351 43.73 88.6951 43.31C88.4251 43.73 87.9551 44 87.3851 44H86.9451L86.5251 43.84V43.19L86.9451 43.03H87.3851C87.8251 43.03 88.1251 42.72 88.1251 42.28V41.03C88.1251 39.83 89.0351 38.92 90.2351 38.92H90.3451ZM91.4851 41.85V41.03C91.4851 40.35 91.0151 39.88 90.3451 39.88H90.2351C89.5651 39.88 89.0951 40.35 89.0951 41.03V42.38C89.3851 42.77 89.8651 43 90.3951 43C90.9851 43 91.4851 42.48 91.4851 41.85ZM97.5786 43.03H98.6686V44H93.5386V43.03H96.6086V41.12C96.6086 40.4 96.1086 39.9 95.3986 39.9H94.0286V38.94H95.3986C96.6386 38.94 97.5786 39.87 97.5786 41.12V43.03ZM100.406 38.24C100.076 38.24 99.8057 37.97 99.8057 37.64C99.8057 37.32 100.076 37.04 100.406 37.04C100.726 37.04 100.996 37.32 100.996 37.64C100.996 37.97 100.726 38.24 100.406 38.24ZM103.406 41.53C104.016 42.97 104.216 42.99 104.486 43.03V44H98.5857L98.1657 43.84V43.19L98.5857 43.03H103.056C102.876 42.87 102.646 42.27 102.356 41.65C101.566 40.05 100.576 39.51 99.0857 40.09V39.21C100.806 38.55 102.416 39.31 103.406 41.53Z" fill="black"/>
<path d="M28.3875 64V63.22H30.3575C31.0375 63.22 31.5875 62.67 31.5875 61.99V61.08C31.5875 60.35 30.9975 59.75 30.2575 59.75H28.9775V58.97H30.2575C31.4175 58.97 32.3675 59.92 32.3675 61.08V62.14C32.3675 63.17 31.5375 64 30.5075 64H28.3875ZM33.6949 57.04H34.4749V62.73C34.4749 63.05 34.7049 63.22 34.9549 63.22H35.5949V64H34.7249C34.1449 64 33.6949 63.56 33.6949 62.97V57.04ZM41.4344 63.22H42.0344V64H35.5144L35.1744 63.87V63.35L35.5144 63.22H40.2344C40.0344 63.07 39.7844 62.37 39.4644 61.66C38.6344 59.86 37.5344 59.38 36.0444 59.96V59.25C37.6944 58.6 39.3344 59.28 40.3144 61.57C40.9644 63.16 41.1144 63.16 41.4344 63.21V63.22ZM38.3044 64.89C38.5744 64.89 38.8044 65.12 38.8044 65.39C38.8044 65.66 38.5744 65.89 38.3044 65.89C38.0244 65.89 37.7944 65.66 37.7944 65.39C37.7944 65.12 38.0244 64.89 38.3044 64.89ZM50.1188 63.22H50.8588V64H50.1188C49.7188 64 49.3588 63.81 49.1688 63.47C48.9388 63.81 48.6688 64 48.1388 64H47.2488C46.7988 64 46.4688 63.72 46.3288 63.49C46.1488 63.8 45.8088 64 45.2988 64H44.4788C44.0088 64 43.6588 63.74 43.5288 63.45C43.3588 63.76 43.0488 64 42.3288 64H42.0288L41.6888 63.87V63.35L42.0288 63.22H42.2388C42.8288 63.22 43.0388 62.92 43.0388 62.54V60H43.8088L43.8188 62.54C43.8188 63.01 44.1188 63.22 44.4488 63.22H45.1888C45.5788 63.22 45.8488 62.92 45.8488 62.54V60H46.6088V62.54C46.6088 62.92 46.8888 63.22 47.2988 63.22H48.0588C48.4488 63.22 48.6588 62.92 48.6588 62.54V59.14H49.4188V62.54C49.4188 62.92 49.6988 63.22 50.1188 63.22ZM51.9371 57.04H52.7171V62.97C52.7171 63.56 52.2671 64 51.6871 64H50.8171L50.4871 63.87V63.35L50.8171 63.22H51.4671C51.7071 63.22 51.9371 63.05 51.9371 62.73V57.04ZM54.9253 64H54.1453V57.04H54.9253V64ZM66.4089 63.22H66.9589V64H66.3189C65.8689 64 65.4789 63.77 65.2089 63.44C64.9589 63.77 64.5789 64 64.0189 64H60.2489C59.0989 64 58.2389 63.14 58.2389 61.99V60.3H59.0189V61.99C59.0189 62.71 59.5289 63.22 60.2489 63.22H64.0189C64.5689 63.22 64.8289 62.86 64.8289 62.39L64.8189 57.04H65.6089V62.12C65.6089 62.19 65.6089 62.27 65.5989 62.34V62.38C65.5989 62.85 65.8489 63.22 66.4089 63.22ZM62.7889 59.93V60.39H60.8789V59.93H61.2489C61.0989 59.77 60.9989 59.56 60.9989 59.28C60.9989 58.74 61.3189 58.39 61.8589 58.39C62.3089 58.39 62.7289 58.69 62.7389 59.3H62.3089C62.2989 58.99 62.0789 58.87 61.8689 58.87C61.6389 58.87 61.4489 58.99 61.4489 59.32C61.4489 59.56 61.5189 59.79 61.8189 59.93H62.7889ZM68.0211 57.04H68.8011V62.97C68.8011 63.56 68.3511 64 67.7711 64H66.9011L66.5711 63.87V63.35L66.9011 63.22H67.5511C67.7911 63.22 68.0211 63.05 68.0211 62.73V57.04ZM80.1686 63.22H80.6586V64H80.0786C79.6286 64 79.2386 63.77 78.9686 63.44C78.7286 63.77 78.3486 64 77.7786 64H74.0086C72.8586 64 71.9986 63.14 71.9986 61.99V60.3H72.7786V61.99C72.7786 62.71 73.2886 63.22 74.0086 63.22H77.7786C78.3286 63.22 78.5786 62.86 78.5886 62.4L78.5786 59.27H79.3686V62.12C79.3686 62.19 79.3686 62.27 79.3586 62.35V62.38C79.3586 62.85 79.6086 63.22 80.1686 63.22ZM75.7786 65.09C76.0586 65.09 76.2786 65.32 76.2786 65.59C76.2786 65.87 76.0586 66.1 75.7786 66.1C75.5086 66.1 75.2786 65.87 75.2786 65.59C75.2786 65.32 75.5086 65.09 75.7786 65.09ZM83.0785 57.15C82.7185 57.15 82.4385 56.92 82.4385 56.47V56.22L82.7985 56.13V56.47C82.7985 56.68 82.8885 56.79 83.0785 56.79C83.2585 56.79 83.3385 56.66 83.3385 56.4V55.94L83.6985 55.84V56.35C83.6985 56.53 83.8385 56.62 83.9685 56.62C84.1985 56.62 84.3085 56.48 84.3085 56.21V55.67L84.6685 55.58V56.21C84.6685 56.7 84.3985 56.99 84.0085 56.99C83.8485 56.99 83.6785 56.9 83.5785 56.77C83.4985 57.02 83.2885 57.15 83.0785 57.15ZM82.3028 60.05H84.7528C85.6828 60.05 86.4428 60.8 86.4428 61.74V62.31C86.4428 63.24 85.6828 64 84.7528 64H80.6228L80.2828 63.88V63.35L80.6228 63.22H84.6728C85.2128 63.22 85.6528 62.78 85.6528 62.24V61.81C85.6528 61.27 85.2128 60.83 84.6728 60.83H81.2728L81.1928 60.51L83.0528 57.04L83.6628 57.3L82.3028 60.05ZM90.4576 63.22V64H89.4576V64.22C89.4576 65.37 88.5876 66.23 87.4376 66.23H86.9376V65.46H87.4376C88.1576 65.46 88.6776 64.95 88.6776 64.22V59.21H89.4576V63.22H90.4576ZM92.0184 58.54C91.7484 58.54 91.5184 58.31 91.5184 58.04C91.5184 57.77 91.7484 57.53 92.0184 57.53C92.2884 57.53 92.5184 57.77 92.5184 58.04C92.5184 58.31 92.2884 58.54 92.0184 58.54ZM90.2084 64V63.22H91.2384C91.4784 63.22 91.7084 63.05 91.7084 62.73V59.26H92.4884V62.97C92.4884 63.56 92.0384 64 91.4584 64H90.2084ZM43.2313 74.11C42.9613 74.11 42.7313 73.88 42.7313 73.61C42.7313 73.34 42.9613 73.1 43.2313 73.1C43.5113 73.1 43.7313 73.34 43.7313 73.61C43.7313 73.88 43.5113 74.11 43.2313 74.11ZM44.8613 74.11C44.5813 74.11 44.3513 73.88 44.3513 73.61C44.3513 73.34 44.5813 73.1 44.8613 73.1C45.1313 73.1 45.3613 73.34 45.3613 73.61C45.3613 73.88 45.1313 74.11 44.8613 74.11ZM41.8313 76.94C41.8313 75.84 42.7213 74.95 43.8113 74.95H43.9713C45.0713 74.95 45.9613 75.84 45.9613 76.94V78.14C45.9613 79.16 45.1313 79.99 44.1213 79.99H43.8113C42.7013 79.99 41.8313 79.12 41.8313 78.01V76.94ZM42.6113 76.94V78.01C42.6113 78.67 43.1513 79.21 43.8113 79.21H44.1413C44.7113 79.21 45.1813 78.75 45.1813 78.17V76.94C45.1813 76.25 44.6513 75.73 43.9713 75.73H43.8113C43.1313 75.73 42.6113 76.25 42.6113 76.94ZM49.9742 79.22V80H48.9742V80.22C48.9742 81.37 48.1042 82.23 46.9542 82.23H46.4542V81.46H46.9542C47.6742 81.46 48.1942 80.95 48.1942 80.22V75.21H48.9742V79.22H49.9742ZM53.055 79.22H53.745V80H52.955C52.505 80 52.115 79.77 51.845 79.44C51.605 79.77 51.225 80 50.665 80H49.855L49.515 79.87V79.35L49.855 79.22H50.675C51.215 79.22 51.465 78.86 51.475 78.4L51.465 75.27H52.245V78.38C52.245 78.85 52.505 79.22 53.055 79.22ZM50.925 80.92C51.205 80.92 51.425 81.15 51.425 81.42C51.425 81.7 51.205 81.93 50.925 81.93C50.655 81.93 50.425 81.7 50.425 81.42C50.425 81.15 50.655 80.92 50.925 80.92ZM52.545 80.92C52.815 80.92 53.045 81.15 53.045 81.42C53.045 81.7 52.815 81.93 52.545 81.93C52.275 81.93 52.045 81.7 52.045 81.42C52.045 81.15 52.275 80.92 52.545 80.92ZM56.5745 79.22H57.0645V80H56.4645C56.0145 80 55.6345 79.77 55.3645 79.44C55.1245 79.77 54.7445 80 54.1845 80H53.6245L53.2845 79.87V79.35L53.6245 79.22H54.1845C54.7445 79.22 54.9845 78.85 54.9845 78.38V75.27H55.7645V78.38C55.7645 78.85 56.0145 79.22 56.5745 79.22ZM55.3545 81.04C55.6345 81.04 55.8545 81.27 55.8545 81.54C55.8545 81.82 55.6345 82.05 55.3545 82.05C55.0845 82.05 54.8545 81.82 54.8545 81.54C54.8545 81.27 55.0845 81.04 55.3545 81.04ZM58.706 74.28C58.436 74.28 58.196 74.05 58.196 73.77C58.196 73.5 58.436 73.27 58.706 73.27C58.976 73.27 59.206 73.5 59.206 73.77C59.206 74.05 58.976 74.28 58.706 74.28ZM61.706 77.57C62.356 79.16 62.506 79.16 62.826 79.21V80H56.906L56.566 79.87V79.35L56.906 79.22H61.626C61.426 79.07 61.176 78.37 60.856 77.66C60.026 75.86 58.926 75.38 57.436 75.96V75.25C59.086 74.6 60.726 75.28 61.706 77.57ZM67.1895 81.25L68.9495 80.62V80.95L67.1895 81.59V81.25ZM67.1895 82.01L68.9495 81.38V81.71L67.1895 82.34V82.01ZM69.97 79.22H71.08V80H65.99V79.22H69.19V77.08C69.19 76.3 68.64 75.75 67.86 75.75H66.47V74.97H67.86C69.07 74.97 69.97 75.88 69.97 77.08V79.22ZM70.8878 80V79.22H72.4378C72.6878 79.22 72.9078 79.05 72.9078 78.73V75.26H73.6878V78.97C73.6878 79.56 73.2478 80 72.6678 80H70.8878ZM71.7278 81.96C71.4578 81.96 71.2278 81.74 71.2278 81.46C71.2278 81.19 71.4578 80.96 71.7278 80.96C72.0078 80.96 72.2278 81.19 72.2278 81.46C72.2278 81.74 72.0078 81.96 71.7278 81.96ZM73.3478 81.96C73.0778 81.96 72.8378 81.74 72.8378 81.46C72.8378 81.19 73.0778 80.96 73.3478 80.96C73.6178 80.96 73.8478 81.19 73.8478 81.46C73.8478 81.74 73.6178 81.96 73.3478 81.96ZM76.4355 71.86V72.32H74.5455V71.86H74.9255C74.7655 71.71 74.6555 71.49 74.6555 71.21C74.6555 70.68 74.9755 70.35 75.4855 70.35C75.9755 70.35 76.3155 70.62 76.3855 71.25H75.9655C75.9055 70.94 75.7455 70.8 75.4955 70.8C75.2355 70.8 75.1055 70.93 75.1055 71.25C75.1055 71.47 75.1955 71.71 75.4655 71.86H76.4355ZM76.3855 79.22H77.0255V80H76.1555C75.5755 80 75.1255 79.56 75.1255 78.97V73.04H75.9055V78.73C75.9055 79.05 76.1355 79.22 76.3855 79.22ZM76.8246 80V79.22H77.8546C78.0946 79.22 78.3246 79.05 78.3246 78.73V75.26H79.1046V78.97C79.1046 79.56 78.6546 80 78.0746 80H76.8246ZM78.1946 82.08C77.9246 82.08 77.6946 81.86 77.6946 81.58C77.6946 81.31 77.9246 81.08 78.1946 81.08C78.4746 81.08 78.6946 81.31 78.6946 81.58C78.6946 81.86 78.4746 82.08 78.1946 82.08Z" fill="black"/>
<path d="M159.274 20.4134C159.274 23.6734 156.907 26.7267 153.674 27.62C153.454 27.68 153.214 27.68 152.994 27.62C149.76 26.7267 147.394 23.6734 147.394 20.4134V17.4867C147.394 16.94 147.807 16.32 148.32 16.1134L152.034 14.5934C152.867 14.2534 153.807 14.2534 154.64 14.5934L158.354 16.1134C158.86 16.32 159.28 16.94 159.28 17.4867L159.274 20.4134Z" stroke="#292D32" stroke-linecap="round" stroke-linejoin="round"/>
<path d="M129.357 38.04C129.027 38.04 128.757 37.77 128.757 37.44C128.757 37.12 129.027 36.85 129.357 36.85C129.677 36.85 129.947 37.12 129.947 37.44C129.947 37.77 129.677 38.04 129.357 38.04ZM131.147 38.04C130.827 38.04 130.547 37.77 130.547 37.44C130.547 37.12 130.827 36.85 131.147 36.85C131.477 36.85 131.747 37.12 131.747 37.44C131.747 37.77 131.477 38.04 131.147 38.04ZM133.037 43.03H133.317V44H133.037C132.437 44 131.927 43.72 131.617 43.27C131.257 43.7 130.737 43.96 130.017 43.96C128.887 43.96 127.967 43.01 127.967 41.85V41.03C127.967 39.83 128.867 38.92 130.077 38.92H132.287V42.28C132.287 42.72 132.597 43.03 133.037 43.03ZM131.327 42.38V39.88H130.077C129.407 39.88 128.937 40.35 128.937 41.03V41.85C128.937 42.48 129.427 43 130.017 43C130.547 43 131.037 42.77 131.327 42.38ZM136.665 43.03H137.455V44H136.535C136.085 44 135.685 43.77 135.395 43.44C135.125 43.77 134.725 44 134.125 44H133.235L132.815 43.84V43.19L133.235 43.03H134.135C134.715 43.03 134.915 42.66 134.915 42.2V39.27H135.885V41.85C135.885 41.93 135.885 42.01 135.875 42.1V42.2C135.875 42.66 136.095 43.03 136.665 43.03ZM134.345 44.93C134.675 44.93 134.945 45.2 134.945 45.52C134.945 45.85 134.675 46.12 134.345 46.12C134.025 46.12 133.745 45.85 133.745 45.52C133.745 45.2 134.025 44.93 134.345 44.93ZM136.135 44.93C136.465 44.93 136.735 45.2 136.735 45.52C136.735 45.85 136.465 46.12 136.135 46.12C135.815 46.12 135.535 45.85 135.535 45.52C135.535 45.2 135.815 44.93 136.135 44.93ZM140.207 43.03H140.547V44H140.077C139.617 44 139.217 43.77 138.937 43.44C138.667 43.77 138.257 44 137.667 44H137.337V43.99L136.927 43.84V43.19L137.337 43.05V43.03H137.677C138.247 43.03 138.457 42.66 138.457 42.2V37.04H139.427V41.85C139.427 41.93 139.427 42.01 139.417 42.1V42.2C139.417 42.66 139.637 43.03 140.207 43.03ZM145.401 39.03C147.031 39.03 147.861 39.95 147.861 41.71C147.861 42.97 146.841 44 145.571 44L140.421 43.99V43.03H141.561V39.53H142.521V40.69C143.311 39.83 144.321 39.03 145.401 39.03ZM145.521 43.03C146.291 43.03 146.921 42.41 146.921 41.63C146.921 40.42 146.271 39.97 145.311 39.97C144.371 39.97 143.421 40.6 142.521 41.66V43.03H145.521ZM149.827 35.74H150.817V36.29H148.807V35.74H149.177C149.027 35.59 148.917 35.37 148.917 35.09C148.917 34.54 149.247 34.19 149.807 34.19C150.347 34.19 150.707 34.51 150.767 35.17H150.267C150.217 34.88 150.057 34.74 149.817 34.74C149.577 34.74 149.447 34.86 149.447 35.14C149.447 35.34 149.537 35.59 149.827 35.74ZM149.337 44V37.04H150.307V44H149.337ZM156.298 39.01C155.968 39.01 155.698 38.74 155.698 38.41C155.698 38.09 155.968 37.81 156.298 37.81C156.618 37.81 156.888 38.09 156.888 38.41C156.888 38.74 156.618 39.01 156.298 39.01ZM158.088 39.01C157.768 39.01 157.488 38.74 157.488 38.41C157.488 38.09 157.768 37.81 158.088 37.81C158.418 37.81 158.688 38.09 158.688 38.41C158.688 38.74 158.418 39.01 158.088 39.01ZM153.538 40.32H154.498V41.91C154.498 42.57 154.968 43.03 155.628 43.03H159.258C159.828 43.03 160.048 42.66 160.048 42.2V39.02H161.008V42.59C161.008 43.39 160.408 44 159.608 44H155.628C154.428 44 153.538 43.11 153.538 41.91V40.32ZM162.285 37.04H163.255V42.56C163.255 42.88 163.475 43.03 163.705 43.03H164.295V44H163.405C162.775 44 162.285 43.52 162.285 42.89V37.04ZM167.602 38.92C168.802 38.92 169.712 39.83 169.712 41.03V41.85C169.712 43.01 168.782 43.96 167.652 43.96C167.002 43.96 166.392 43.73 165.952 43.31C165.682 43.73 165.212 44 164.642 44H164.202L163.782 43.84V43.19L164.202 43.03H164.642C165.082 43.03 165.382 42.72 165.382 42.28V41.03C165.382 39.83 166.292 38.92 167.492 38.92H167.602ZM168.742 41.85V41.03C168.742 40.35 168.272 39.88 167.602 39.88H167.492C166.822 39.88 166.352 40.35 166.352 41.03V42.38C166.642 42.77 167.122 43 167.652 43C168.242 43 168.742 42.48 168.742 41.85ZM170.996 37.04H171.966V42.56C171.966 42.88 172.186 43.03 172.416 43.03H173.006V44H172.116C171.486 44 170.996 43.52 170.996 42.89V37.04ZM174.733 38.24C174.403 38.24 174.133 37.97 174.133 37.64C174.133 37.32 174.403 37.04 174.733 37.04C175.053 37.04 175.323 37.32 175.323 37.64C175.323 37.97 175.053 38.24 174.733 38.24ZM177.733 41.53C178.343 42.97 178.543 42.99 178.813 43.03V44H172.913L172.493 43.84V43.19L172.913 43.03H177.383C177.203 42.87 176.973 42.27 176.683 41.65C175.893 40.05 174.903 39.51 173.413 40.09V39.21C175.133 38.55 176.743 39.31 177.733 41.53Z" fill="black"/>
<path d="M126.217 58.01C125.947 58.01 125.717 57.78 125.717 57.5C125.717 57.23 125.947 57 126.217 57C126.497 57 126.717 57.23 126.717 57.5C126.717 57.78 126.497 58.01 126.217 58.01ZM127.847 58.01C127.567 58.01 127.337 57.78 127.337 57.5C127.337 57.23 127.567 57 127.847 57C128.117 57 128.347 57.23 128.347 57.5C128.347 57.78 128.117 58.01 127.847 58.01ZM129.877 63.22H130.127V64H129.877C129.257 64 128.757 63.7 128.477 63.23C128.097 63.68 127.557 63.96 126.837 63.96C125.747 63.96 124.867 63.04 124.867 61.93V60.99C124.867 59.83 125.727 58.96 126.887 58.96H129.027V62.36C129.027 62.87 129.377 63.22 129.877 63.22ZM128.247 62.5V59.74H126.887C126.157 59.74 125.637 60.26 125.637 60.99V61.93C125.637 62.62 126.187 63.18 126.837 63.18C127.407 63.18 127.937 62.93 128.247 62.5ZM129.957 64V63.22H131.507C131.757 63.22 131.977 63.05 131.977 62.73V59.26H132.757V62.97C132.757 63.56 132.317 64 131.737 64H129.957ZM130.797 65.96C130.527 65.96 130.297 65.74 130.297 65.46C130.297 65.19 130.527 64.96 130.797 64.96C131.077 64.96 131.297 65.19 131.297 65.46C131.297 65.74 131.077 65.96 130.797 65.96ZM132.417 65.96C132.147 65.96 131.907 65.74 131.907 65.46C131.907 65.19 132.147 64.96 132.417 64.96C132.687 64.96 132.917 65.19 132.917 65.46C132.917 65.74 132.687 65.96 132.417 65.96ZM134.194 57.04H134.974V62.73C134.974 63.05 135.204 63.22 135.454 63.22H136.094V64H135.224C134.644 64 134.194 63.56 134.194 62.97V57.04ZM137.544 58.42C137.274 58.42 137.044 58.19 137.044 57.92C137.044 57.65 137.274 57.42 137.544 57.42C137.824 57.42 138.044 57.65 138.044 57.92C138.044 58.19 137.824 58.42 137.544 58.42ZM138.814 63.22H139.164V64H138.714C138.264 64 137.884 63.77 137.614 63.44C137.364 63.77 136.984 64 136.424 64H136.004L135.664 63.87V63.35L136.004 63.22H136.434C136.994 63.22 137.234 62.85 137.234 62.38V59.27H138.014V62.12C138.014 62.19 138.014 62.27 138.004 62.35V62.38C138.004 62.85 138.264 63.22 138.814 63.22ZM143.721 63.22H145.111V64H143.281C142.811 64 142.361 63.82 142.051 63.42C141.611 63.82 141.131 64 140.711 64H139.041V63.99L138.721 63.87V63.35L139.041 63.23V63.22H140.531C140.781 63.22 141.291 63.1 141.551 62.88L139.691 60.16V59.55C140.501 59.19 141.331 59 142.111 59C143.381 59 144.221 59.53 144.221 60.42C144.221 60.59 144.191 60.8 144.111 61.02C143.831 61.87 143.341 62.35 142.771 62.9C143.021 63.11 143.361 63.22 143.721 63.22ZM142.141 62.51C142.601 62.04 143.011 61.62 143.251 60.9C143.311 60.73 143.331 60.61 143.331 60.48C143.331 60.02 142.921 59.73 142.091 59.73C141.571 59.73 141.001 59.86 140.511 60.08V60.13L142.141 62.51ZM144.897 64V63.22H145.927C146.167 63.22 146.397 63.05 146.397 62.73V59.26H147.177V62.97C147.177 63.56 146.727 64 146.147 64H144.897ZM146.267 66.08C145.997 66.08 145.767 65.86 145.767 65.58C145.767 65.31 145.997 65.08 146.267 65.08C146.547 65.08 146.767 65.31 146.767 65.58C146.767 65.86 146.547 66.08 146.267 66.08ZM158.471 63.22H159.021V64H158.381C157.931 64 157.541 63.77 157.271 63.44C157.021 63.77 156.641 64 156.081 64H152.311C151.161 64 150.301 63.14 150.301 61.99V60.3H151.081V61.99C151.081 62.71 151.591 63.22 152.311 63.22H156.081C156.631 63.22 156.891 62.86 156.891 62.39L156.881 57.04H157.671V62.12C157.671 62.19 157.671 62.27 157.661 62.34V62.38C157.661 62.85 157.911 63.22 158.471 63.22ZM154.851 59.93V60.39H152.941V59.93H153.311C153.161 59.77 153.061 59.56 153.061 59.28C153.061 58.74 153.381 58.39 153.921 58.39C154.371 58.39 154.791 58.69 154.801 59.3H154.371C154.361 58.99 154.141 58.87 153.931 58.87C153.701 58.87 153.511 58.99 153.511 59.32C153.511 59.56 153.581 59.79 153.881 59.93H154.851ZM160.083 57.04H160.863V62.97C160.863 63.56 160.413 64 159.833 64H158.963L158.633 63.87V63.35L158.963 63.22H159.613C159.853 63.22 160.083 63.05 160.083 62.73V57.04ZM163.421 66.23V65.46H163.931C164.651 65.46 165.161 64.95 165.161 64.22V59.21H165.941V64.22C165.941 65.37 165.081 66.23 163.931 66.23H163.421ZM167.358 57.04H168.138V62.73C168.138 63.05 168.368 63.22 168.618 63.22H169.258V64H168.388C167.808 64 167.358 63.56 167.358 62.97V57.04ZM170.348 58.41C170.078 58.41 169.848 58.19 169.848 57.91C169.848 57.64 170.078 57.41 170.348 57.41C170.628 57.41 170.848 57.64 170.848 57.91C170.848 58.19 170.628 58.41 170.348 58.41ZM171.978 58.41C171.698 58.41 171.468 58.19 171.468 57.91C171.468 57.64 171.698 57.41 171.978 57.41C172.248 57.41 172.478 57.64 172.478 57.91C172.478 58.19 172.248 58.41 171.978 58.41ZM172.338 63.22H173.228V64H172.238C171.788 64 171.408 63.77 171.138 63.44C170.888 63.77 170.508 64 169.948 64H169.168L168.828 63.87V63.35L169.168 63.22H169.958C170.518 63.22 170.758 62.85 170.758 62.38V59.27H171.538V62.12C171.538 62.19 171.538 62.27 171.528 62.35V62.38C171.528 62.85 171.788 63.22 172.338 63.22ZM174.983 58.28C174.713 58.28 174.483 58.05 174.483 57.77C174.483 57.5 174.713 57.27 174.983 57.27C175.253 57.27 175.483 57.5 175.483 57.77C175.483 58.05 175.253 58.28 174.983 58.28ZM179.103 63.22H179.703V64H173.183L172.843 63.87V63.35L173.183 63.22H177.903C177.703 63.07 177.453 62.37 177.133 61.66C176.303 59.86 175.203 59.38 173.713 59.96V59.25C175.363 58.6 177.003 59.28 177.983 61.57C178.633 63.16 178.783 63.16 179.103 63.21V63.22ZM181.336 58.54C181.066 58.54 180.836 58.31 180.836 58.04C180.836 57.77 181.066 57.53 181.336 57.53C181.606 57.53 181.836 57.77 181.836 58.04C181.836 58.31 181.606 58.54 181.336 58.54ZM179.526 64V63.22H180.556C180.796 63.22 181.026 63.05 181.026 62.73V59.26H181.806V62.97C181.806 63.56 181.356 64 180.776 64H179.526ZM128.75 74.98C128.48 74.98 128.25 74.75 128.25 74.47C128.25 74.2 128.48 73.97 128.75 73.97C129.03 73.97 129.25 74.2 129.25 74.47C129.25 74.75 129.03 74.98 128.75 74.98ZM130.38 74.98C130.1 74.98 129.87 74.75 129.87 74.47C129.87 74.2 130.1 73.97 130.38 73.97C130.65 73.97 130.87 74.2 130.87 74.47C130.87 74.75 130.65 74.98 130.38 74.98ZM125.97 76.31H126.75V77.99C126.75 78.71 127.26 79.22 127.98 79.22H131.75C132.3 79.22 132.56 78.85 132.56 78.38V74.96H133.33V78.68C133.33 79.43 132.76 80 132.01 80H127.98C126.83 80 125.97 79.14 125.97 77.99V76.31ZM134.639 73.04H135.419V78.73C135.419 79.05 135.649 79.22 135.899 79.22H136.539V80H135.669C135.089 80 134.639 79.56 134.639 78.97V73.04ZM139.878 74.96C141.048 74.96 141.908 75.83 141.908 76.99V77.93C141.908 79.04 141.028 79.96 139.938 79.96C139.268 79.96 138.648 79.71 138.208 79.26C137.958 79.71 137.478 80 136.898 80H136.458L136.118 79.87V79.35L136.458 79.22H136.898C137.398 79.22 137.748 78.87 137.748 78.36V76.99C137.748 75.83 138.618 74.96 139.778 74.96H139.878ZM141.138 77.93V76.99C141.138 76.26 140.618 75.74 139.878 75.74H139.778C139.038 75.74 138.528 76.26 138.528 76.99V78.5C138.838 78.93 139.358 79.18 139.938 79.18C140.588 79.18 141.138 78.62 141.138 77.93ZM143.223 73.04H144.003V78.73C144.003 79.05 144.233 79.22 144.483 79.22H145.123V80H144.253C143.673 80 143.223 79.56 143.223 78.97V73.04ZM146.872 74.28C146.602 74.28 146.372 74.05 146.372 73.77C146.372 73.5 146.602 73.27 146.872 73.27C147.142 73.27 147.372 73.5 147.372 73.77C147.372 74.05 147.142 74.28 146.872 74.28ZM150.992 79.22H151.592V80H145.072L144.732 79.87V79.35L145.072 79.22H149.792C149.592 79.07 149.342 78.37 149.022 77.66C148.192 75.86 147.092 75.38 145.602 75.96V75.25C147.252 74.6 148.892 75.28 149.872 77.57C150.522 79.16 150.672 79.16 150.992 79.21V79.22ZM152.676 73.04H153.456V78.97C153.456 79.56 153.006 80 152.426 80H151.556L151.226 79.87V79.35L151.556 79.22H152.206C152.446 79.22 152.676 79.05 152.676 78.73V73.04ZM155.664 80H154.884V73.04H155.664V80ZM165.948 79.22V80H164.698C164.628 81.54 163.458 82.67 161.888 82.67H161.848C160.248 82.67 159.068 81.48 159.068 79.87V77.83H159.838V79.87C159.838 81.06 160.668 81.89 161.848 81.89H161.888C163.078 81.89 163.918 81.06 163.918 79.87V73.04H164.698V79.22H165.948ZM170.401 74.36C170.131 74.36 169.901 74.13 169.901 73.86C169.901 73.59 170.131 73.35 170.401 73.35C170.681 73.35 170.901 73.59 170.901 73.86C170.901 74.13 170.681 74.36 170.401 74.36ZM172.791 79.22H173.451V80H165.921L165.591 79.87V79.35L165.921 79.22H166.741V75.6H167.511V76.86C168.311 75.94 169.321 75.09 170.431 75.09C171.971 75.09 172.791 75.88 172.791 77.85V79.22ZM172.031 79.22V77.85C172.031 76.37 171.371 75.86 170.371 75.86C169.421 75.86 168.421 76.56 167.511 77.62V79.22H172.031ZM176.092 74.02C175.842 74.02 175.622 73.81 175.612 73.55C175.592 73.27 175.822 73.02 176.112 73.02C176.382 73.02 176.602 73.24 176.612 73.51C176.612 73.79 176.382 74.03 176.092 74.02ZM176.132 74.96C177.262 74.96 178.162 75.86 178.162 77V78.09C178.162 79.14 177.312 79.99 176.252 79.99H173.392L173.052 79.87V79.34L173.392 79.21H174.602C174.242 78.93 174.002 78.47 174.002 77.96V77C174.002 75.86 174.892 74.96 176.032 74.96H176.132ZM177.382 78.01V77C177.382 76.29 176.842 75.74 176.132 75.74H176.032C175.322 75.74 174.782 76.29 174.782 77V77.96C174.782 78.65 175.322 79.21 175.972 79.21H176.182C176.842 79.21 177.382 78.68 177.382 78.01ZM179.873 71.85H180.833V72.3H178.943V71.85H179.333C179.163 71.7 179.063 71.48 179.063 71.19C179.063 70.66 179.373 70.33 179.893 70.33C180.373 70.33 180.723 70.61 180.793 71.23H180.363C180.303 70.92 180.143 70.79 179.893 70.79C179.633 70.79 179.503 70.91 179.503 71.23C179.503 71.45 179.593 71.7 179.873 71.85ZM179.513 80V73.04H180.293V80H179.513Z" fill="black"/>
<path d="M239.167 28.1666C235.7 28.1666 232.887 25.3466 232.887 21.8866C232.887 18.4266 235.7 15.6 239.167 15.6C239.88 15.6 240.573 15.7 241.24 15.9066C241.507 15.9866 241.653 16.2666 241.573 16.5333C241.493 16.8 241.213 16.9466 240.947 16.8666C240.38 16.6933 239.78 16.6 239.167 16.6C236.253 16.6 233.887 18.9666 233.887 21.88C233.887 24.7933 236.253 27.16 239.167 27.16C242.08 27.16 244.447 24.7933 244.447 21.88C244.447 20.8266 244.14 19.8133 243.56 18.9466C243.407 18.72 243.467 18.4066 243.7 18.2533C243.927 18.1 244.24 18.16 244.393 18.3933C245.087 19.4266 245.453 20.6333 245.453 21.8866C245.447 25.3466 242.633 28.1666 239.167 28.1666Z" fill="#292D32"/>
<path d="M241.92 17.0466C241.78 17.0466 241.64 16.9866 241.54 16.8733L239.613 14.66C239.433 14.4533 239.453 14.1333 239.66 13.9533C239.866 13.7733 240.186 13.7933 240.366 14L242.293 16.2133C242.473 16.42 242.453 16.74 242.246 16.92C242.16 17.0066 242.04 17.0466 241.92 17.0466Z" fill="#292D32"/>
<path d="M239.673 18.6867C239.52 18.6867 239.366 18.6134 239.266 18.4801C239.106 18.2601 239.153 17.9467 239.373 17.7801L241.62 16.1401C241.84 15.9734 242.153 16.0267 242.32 16.2467C242.486 16.4667 242.433 16.7801 242.213 16.9467L239.966 18.5934C239.88 18.6601 239.78 18.6867 239.673 18.6867Z" fill="#292D32"/>
<path d="M217.856 43.03V44H216.696C216.586 45.53 215.396 46.64 213.836 46.64H213.786C212.146 46.64 210.926 45.42 210.926 43.77V41.77H211.886V43.77C211.886 44.9 212.666 45.67 213.786 45.67H213.836C214.946 45.67 215.736 44.9 215.736 43.77V37.04H216.706V43.03H217.856ZM222.998 43.03H224.468V44H223.278V44.35C223.278 45.69 222.588 46.64 221.128 46.64C219.758 46.64 218.978 45.6 218.978 44.21V44H217.648L217.228 43.84V43.19L217.648 43.03H218.978V41.36C218.978 39.95 219.918 38.93 221.218 38.93C222.578 38.93 223.458 39.95 223.458 41.57C223.458 42.13 223.288 42.63 222.998 43.03ZM219.878 41.45V43.03H221.028C221.928 43.03 222.588 42.47 222.588 41.57C222.588 40.43 222.058 39.82 221.228 39.82C220.448 39.82 219.878 40.51 219.878 41.45ZM221.128 45.75C221.928 45.75 222.388 45.12 222.388 44.21V43.61C222.008 43.86 221.538 44 221.028 44H219.878V44.21C219.878 45.12 220.298 45.75 221.128 45.75ZM230.687 39H231.647V42.23C231.647 43.2 230.857 44 229.877 44C229.247 44 228.787 43.79 228.497 43.46C228.177 43.83 227.647 44.01 227.137 44.01C226.607 44.01 226.157 43.82 225.847 43.46C225.557 43.79 225.117 44 224.627 44H224.137V43.03H224.657C225.067 43.03 225.367 42.73 225.367 42.33V40H226.327V42.33C226.327 42.77 226.607 43.04 227.147 43.05C227.667 43.06 228.017 42.77 228.017 42.33V40H228.987V42.33C228.987 42.76 229.307 43.03 229.877 43.03C230.327 43.03 230.687 42.67 230.687 42.23V39ZM224.127 44L223.707 43.84V43.19L224.127 43.03V44ZM237.448 44C236.578 44 235.968 44.49 235.968 45.36C235.968 46.68 237.798 47.32 239.528 46.56V47.45C237.338 48.49 234.998 47.43 234.998 45.36C234.998 44.35 235.548 43.59 236.368 43.24C235.818 42.86 235.508 42.26 235.508 41.42C235.508 38.92 237.938 38.36 239.738 39.14V40.03C238.258 39.39 236.578 39.75 236.578 41.44C236.578 42.69 237.308 43.02 238.228 43.02H239.788V44H237.448ZM241.116 37.04H242.086V42.56C242.086 42.88 242.306 43.03 242.536 43.03H243.126V44H242.236C241.606 44 241.116 43.52 241.116 42.89V37.04ZM247.853 41.53C248.463 42.97 248.663 42.99 248.933 43.03V44H243.033L242.613 43.84V43.19L243.033 43.03H247.503C247.323 42.87 247.093 42.27 246.803 41.65C246.013 40.05 245.023 39.51 243.533 40.09V39.21C245.253 38.55 246.863 39.31 247.853 41.53ZM245.773 44.84C246.103 44.84 246.373 45.12 246.373 45.44C246.373 45.77 246.103 46.04 245.773 46.04C245.453 46.04 245.173 45.77 245.173 45.44C245.173 45.12 245.453 44.84 245.773 44.84ZM252.89 43.03V44H251.93V44.17C251.93 45.36 251.04 46.26 249.85 46.26H249.34V45.29H249.85C250.5 45.29 250.97 44.83 250.97 44.17V39.2H251.93V43.03H252.89ZM254.03 38.46C253.7 38.46 253.43 38.19 253.43 37.86C253.43 37.54 253.7 37.26 254.03 37.26C254.35 37.26 254.62 37.54 254.62 37.86C254.62 38.19 254.35 38.46 254.03 38.46ZM255.82 38.46C255.5 38.46 255.22 38.19 255.22 37.86C255.22 37.54 255.5 37.26 255.82 37.26C256.15 37.26 256.42 37.54 256.42 37.86C256.42 38.19 256.15 38.46 255.82 38.46ZM256.16 43.03H257.21V44H256.03C255.57 44 255.17 43.77 254.88 43.44C254.62 43.77 254.22 44 253.62 44H252.76L252.34 43.84V43.19L252.76 43.03H253.63C254.19 43.03 254.4 42.67 254.41 42.22L254.4 39.27H255.37V42.2C255.37 42.66 255.59 43.03 256.16 43.03ZM263.675 39H264.635V42.23C264.635 43.2 263.845 44 262.865 44C262.235 44 261.775 43.79 261.485 43.46C261.165 43.83 260.635 44.01 260.125 44.01C259.595 44.01 259.145 43.82 258.835 43.46C258.545 43.79 258.105 44 257.615 44H257.125V43.03H257.645C258.055 43.03 258.355 42.73 258.355 42.33V40H259.315V42.33C259.315 42.77 259.595 43.04 260.135 43.05C260.655 43.06 261.005 42.77 261.005 42.33V40H261.975V42.33C261.975 42.76 262.295 43.03 262.865 43.03C263.315 43.03 263.675 42.67 263.675 42.23V39ZM257.115 44L256.695 43.84V43.19L257.115 43.03V44ZM267.126 44H266.156V37.04H267.126V44Z" fill="black"/>
<path d="M205.941 63.56C206.041 62.81 206.311 61.79 206.461 61.33H206.971C206.881 61.79 206.661 62.65 206.561 63.54L206.521 63.92H205.891L205.941 63.56ZM209.657 58.01C209.387 58.01 209.157 57.78 209.157 57.5C209.157 57.23 209.387 57 209.657 57C209.937 57 210.157 57.23 210.157 57.5C210.157 57.78 209.937 58.01 209.657 58.01ZM211.287 58.01C211.007 58.01 210.777 57.78 210.777 57.5C210.777 57.23 211.007 57 211.287 57C211.557 57 211.787 57.23 211.787 57.5C211.787 57.78 211.557 58.01 211.287 58.01ZM213.317 63.22H213.567V64H213.317C212.697 64 212.197 63.7 211.917 63.23C211.537 63.68 210.997 63.96 210.277 63.96C209.187 63.96 208.307 63.04 208.307 61.93V60.99C208.307 59.83 209.167 58.96 210.327 58.96H212.467V62.36C212.467 62.87 212.817 63.22 213.317 63.22ZM211.687 62.5V59.74H210.327C209.597 59.74 209.077 60.26 209.077 60.99V61.93C209.077 62.62 209.627 63.18 210.277 63.18C210.847 63.18 211.377 62.93 211.687 62.5ZM216.927 58.96C218.097 58.96 218.957 59.83 218.957 60.99V61.93C218.957 63.04 218.077 63.96 216.987 63.96C216.317 63.96 215.697 63.71 215.257 63.26C215.007 63.71 214.527 64 213.947 64H213.507L213.167 63.87V63.35L213.507 63.22H213.947C214.447 63.22 214.797 62.87 214.797 62.36V60.99C214.797 59.83 215.667 58.96 216.827 58.96H216.927ZM218.187 61.93V60.99C218.187 60.26 217.667 59.74 216.927 59.74H216.827C216.087 59.74 215.577 60.26 215.577 60.99V62.5C215.887 62.93 216.407 63.18 216.987 63.18C217.637 63.18 218.187 62.62 218.187 61.93ZM220.272 57.04H221.052V62.73C221.052 63.05 221.282 63.22 221.532 63.22H222.172V64H221.302C220.722 64 220.272 63.56 220.272 62.97V57.04ZM223.081 58.53C222.811 58.53 222.581 58.31 222.581 58.03C222.581 57.76 222.811 57.53 223.081 57.53C223.361 57.53 223.581 57.76 223.581 58.03C223.581 58.31 223.361 58.53 223.081 58.53ZM224.711 58.53C224.431 58.53 224.201 58.31 224.201 58.03C224.201 57.76 224.431 57.53 224.711 57.53C224.981 57.53 225.211 57.76 225.211 58.03C225.211 58.31 224.981 58.53 224.711 58.53ZM222.011 64V63.22H223.271C223.521 63.22 223.741 63.05 223.741 62.73V59.26H224.521V62.97C224.521 63.56 224.071 64 223.501 64H222.011ZM229.511 58.01C229.241 58.01 229.011 57.78 229.011 57.5C229.011 57.23 229.241 57 229.511 57C229.791 57 230.011 57.23 230.011 57.5C230.011 57.78 229.791 58.01 229.511 58.01ZM231.141 58.01C230.861 58.01 230.631 57.78 230.631 57.5C230.631 57.23 230.861 57 231.141 57C231.411 57 231.641 57.23 231.641 57.5C231.641 57.78 231.411 58.01 231.141 58.01ZM233.171 63.22H233.421V64H233.171C232.551 64 232.051 63.7 231.771 63.23C231.391 63.68 230.851 63.96 230.131 63.96C229.041 63.96 228.161 63.04 228.161 61.93V60.99C228.161 59.83 229.021 58.96 230.181 58.96H232.321V62.36C232.321 62.87 232.671 63.22 233.171 63.22ZM231.541 62.5V59.74H230.181C229.451 59.74 228.931 60.26 228.931 60.99V61.93C228.931 62.62 229.481 63.18 230.131 63.18C230.701 63.18 231.231 62.93 231.541 62.5ZM235.361 58.07C235.091 58.07 234.861 57.85 234.861 57.57C234.861 57.3 235.091 57.07 235.361 57.07C235.641 57.07 235.861 57.3 235.861 57.57C235.861 57.85 235.641 58.07 235.361 58.07ZM236.991 58.07C236.711 58.07 236.481 57.85 236.481 57.57C236.481 57.3 236.711 57.07 236.991 57.07C237.261 57.07 237.481 57.3 237.481 57.57C237.481 57.85 237.261 58.07 236.991 58.07ZM237.761 63.22H239.111V64H233.351L233.011 63.87V63.35L233.351 63.22H234.771C234.411 62.94 234.171 62.48 234.171 61.96V61C234.171 59.84 234.951 58.97 236.261 58.97C237.591 58.97 238.361 59.81 238.361 61V61.96C238.361 62.48 238.111 62.94 237.761 63.22ZM237.581 61.96V61C237.581 60.27 237.121 59.75 236.291 59.75C235.391 59.75 234.941 60.24 234.941 61V61.96C234.941 62.65 235.521 63.22 236.231 63.22C237.121 63.22 237.581 62.65 237.581 61.96ZM241.064 57.16C240.784 57.16 240.554 56.93 240.554 56.66C240.554 56.39 240.784 56.16 241.064 56.16C241.334 56.16 241.564 56.39 241.564 56.66C241.564 56.93 241.334 57.16 241.064 57.16ZM240.284 58.37C240.004 58.37 239.774 58.14 239.774 57.86C239.774 57.59 240.004 57.36 240.284 57.36C240.554 57.36 240.784 57.59 240.784 57.86C240.784 58.14 240.554 58.37 240.284 58.37ZM241.344 57.86C241.344 57.59 241.574 57.36 241.844 57.36C242.124 57.36 242.344 57.59 242.344 57.86C242.344 58.14 242.124 58.37 241.844 58.37C241.574 58.37 241.344 58.14 241.344 57.86ZM242.654 63.22H243.214V64H242.324C241.874 64 241.494 63.77 241.224 63.44C240.974 63.77 240.594 64 240.034 64H239.034L238.694 63.87V63.35L239.034 63.22H240.044C240.604 63.22 240.844 62.85 240.844 62.38V59.27H241.624V62.38C241.624 62.85 242.104 63.22 242.654 63.22ZM242.996 64V63.22H244.026C244.266 63.22 244.496 63.05 244.496 62.73V59.26H245.276V62.97C245.276 63.56 244.826 64 244.246 64H242.996ZM244.366 66.08C244.096 66.08 243.866 65.86 243.866 65.58C243.866 65.31 244.096 65.08 244.366 65.08C244.646 65.08 244.866 65.31 244.866 65.58C244.866 65.86 244.646 66.08 244.366 66.08ZM252.44 58.23C252.16 58.23 251.93 58 251.93 57.72C251.93 57.45 252.16 57.22 252.44 57.22C252.71 57.22 252.94 57.45 252.94 57.72C252.94 58 252.71 58.23 252.44 58.23ZM254.06 58.23C253.79 58.23 253.56 58 253.56 57.72C253.56 57.45 253.79 57.22 254.06 57.22C254.33 57.22 254.56 57.45 254.56 57.72C254.56 58 254.33 58.23 254.06 58.23ZM253.25 58.83C254.39 58.83 255.24 59.68 255.24 60.81V63.42C255.24 65.36 253.81 66.78 251.87 66.78H251.85C249.92 66.78 248.49 65.35 248.49 63.42V62.29H249.27V63.42C249.27 64.92 250.35 66 251.85 66H251.87C253.23 66 254.24 65.12 254.42 63.84H253.1C251.96 63.84 251.11 62.98 251.11 61.85V60.81C251.11 59.68 251.96 58.83 253.1 58.83H253.25ZM254.45 62.39H254.46V60.81C254.46 60.1 253.95 59.6 253.25 59.6H253.1C252.39 59.6 251.89 60.1 251.89 60.81V61.85C251.89 62.55 252.39 63.06 253.1 63.06H254.45V62.39ZM258.161 57.15C257.801 57.15 257.521 56.92 257.521 56.47V56.22L257.881 56.13V56.47C257.881 56.68 257.971 56.79 258.161 56.79C258.341 56.79 258.421 56.66 258.421 56.4V55.94L258.781 55.84V56.35C258.781 56.53 258.921 56.62 259.051 56.62C259.281 56.62 259.391 56.48 259.391 56.21V55.67L259.751 55.58V56.21C259.751 56.7 259.481 56.99 259.091 56.99C258.931 56.99 258.761 56.9 258.661 56.77C258.581 57.02 258.371 57.15 258.161 57.15ZM261.19 63.22V64H260.59V64.45C260.59 65.85 259.46 66.49 257.22 66.11V65.38C259.15 65.63 259.81 65.27 259.81 64.29V63.99H258.38C257.3 63.98 256.43 63.06 256.43 61.96V61C256.43 59.84 257.29 58.96 258.46 58.96H258.56C259.73 58.96 260.59 59.84 260.59 61V63.22H261.19ZM258.4 63.21H259.81V61C259.81 60.26 259.29 59.74 258.56 59.74H258.46C257.72 59.74 257.21 60.26 257.21 61V61.96C257.21 62.65 257.75 63.21 258.4 63.21ZM269.254 63.22H269.994V64H269.254C268.854 64 268.494 63.81 268.304 63.47C268.074 63.81 267.804 64 267.274 64H266.384C265.934 64 265.604 63.72 265.464 63.49C265.284 63.8 264.944 64 264.434 64H263.614C263.144 64 262.794 63.74 262.664 63.45C262.494 63.76 262.184 64 261.464 64H261.164L260.824 63.87V63.35L261.164 63.22H261.374C261.964 63.22 262.174 62.92 262.174 62.54V60H262.944L262.954 62.54C262.954 63.01 263.254 63.22 263.584 63.22H264.324C264.714 63.22 264.984 62.92 264.984 62.54V60H265.744V62.54C265.744 62.92 266.024 63.22 266.434 63.22H267.194C267.584 63.22 267.794 62.92 267.794 62.54V59.14H268.554V62.54C268.554 62.92 268.834 63.22 269.254 63.22ZM270.942 58.53C270.672 58.53 270.442 58.31 270.442 58.03C270.442 57.76 270.672 57.53 270.942 57.53C271.222 57.53 271.442 57.76 271.442 58.03C271.442 58.31 271.222 58.53 270.942 58.53ZM272.572 58.53C272.292 58.53 272.062 58.31 272.062 58.03C272.062 57.76 272.292 57.53 272.572 57.53C272.842 57.53 273.072 57.76 273.072 58.03C273.072 58.31 272.842 58.53 272.572 58.53ZM269.872 64V63.22H271.132C271.382 63.22 271.602 63.05 271.602 62.73V59.26H272.382V62.97C272.382 63.56 271.932 64 271.362 64H269.872ZM213.098 80C212.228 80 211.608 80.51 211.608 81.38C211.608 82.76 213.478 83.43 215.228 82.65V83.37C213.088 84.38 210.838 83.37 210.838 81.38C210.838 80.4 211.388 79.67 212.218 79.37C211.658 79.01 211.328 78.4 211.328 77.49C211.328 74.97 213.748 74.47 215.468 75.26V75.98C213.988 75.32 212.178 75.64 212.178 77.51C212.178 78.87 212.958 79.21 213.928 79.21H215.518V80H213.098ZM216.888 73.04H217.668V78.73C217.668 79.05 217.898 79.22 218.148 79.22H218.788V80H217.918C217.338 80 216.888 79.56 216.888 78.97V73.04ZM223.507 77.57C224.157 79.16 224.307 79.16 224.627 79.21V80H218.707L218.367 79.87V79.35L218.707 79.22H223.427C223.227 79.07 222.977 78.37 222.657 77.66C221.827 75.86 220.727 75.38 219.237 75.96V75.25C220.887 74.6 222.527 75.28 223.507 77.57ZM221.407 80.89C221.677 80.89 221.907 81.12 221.907 81.39C221.907 81.66 221.677 81.89 221.407 81.89C221.137 81.89 220.907 81.66 220.907 81.39C220.907 81.12 221.137 80.89 221.407 80.89ZM228.592 79.22V80H227.592V80.22C227.592 81.37 226.722 82.23 225.572 82.23H225.072V81.46H225.572C226.292 81.46 226.812 80.95 226.812 80.22V75.21H227.592V79.22H228.592ZM229.653 74.41C229.383 74.41 229.153 74.19 229.153 73.91C229.153 73.64 229.383 73.41 229.653 73.41C229.933 73.41 230.153 73.64 230.153 73.91C230.153 74.19 229.933 74.41 229.653 74.41ZM231.283 74.41C231.003 74.41 230.773 74.19 230.773 73.91C230.773 73.64 231.003 73.41 231.283 73.41C231.553 73.41 231.783 73.64 231.783 73.91C231.783 74.19 231.553 74.41 231.283 74.41ZM231.643 79.22H232.533V80H231.543C231.093 80 230.713 79.77 230.443 79.44C230.193 79.77 229.813 80 229.253 80H228.473L228.133 79.87V79.35L228.473 79.22H229.263C229.823 79.22 230.063 78.85 230.063 78.38V75.27H230.843V78.12C230.843 78.19 230.843 78.27 230.833 78.35V78.38C230.833 78.85 231.093 79.22 231.643 79.22ZM239.037 75.02H239.817V78.34C239.817 79.26 239.067 80 238.157 80C237.507 80 237.037 79.79 236.777 79.44C236.487 79.83 235.937 80.01 235.427 80.01C234.887 80.01 234.437 79.81 234.147 79.45C233.887 79.78 233.457 80 232.987 80H232.457L232.117 79.87V79.35L232.457 79.22H233.027C233.447 79.22 233.767 78.9 233.767 78.48V76H234.537V78.48C234.537 78.94 234.827 79.22 235.437 79.24C236.007 79.25 236.387 78.93 236.387 78.48V76H237.167V78.48C237.167 78.94 237.517 79.22 238.157 79.22C238.637 79.22 239.037 78.83 239.037 78.34V75.02ZM242.151 80H241.371V73.04H242.151V80ZM245.755 73.04H246.535V78.73C246.535 79.05 246.765 79.22 247.015 79.22H247.655V80H246.785C246.205 80 245.755 79.56 245.755 78.97V73.04ZM249.104 74.42C248.834 74.42 248.604 74.19 248.604 73.92C248.604 73.65 248.834 73.42 249.104 73.42C249.384 73.42 249.604 73.65 249.604 73.92C249.604 74.19 249.384 74.42 249.104 74.42ZM250.374 79.22H250.724V80H250.274C249.824 80 249.444 79.77 249.174 79.44C248.924 79.77 248.544 80 247.984 80H247.564L247.224 79.87V79.35L247.564 79.22H247.994C248.554 79.22 248.794 78.85 248.794 78.38V75.27H249.574V78.12C249.574 78.19 249.574 78.27 249.564 78.35V78.38C249.564 78.85 249.824 79.22 250.374 79.22ZM250.502 80V79.22H252.052C252.302 79.22 252.522 79.05 252.522 78.73V75.26H253.302V78.97C253.302 79.56 252.862 80 252.282 80H250.502ZM251.342 81.96C251.072 81.96 250.842 81.74 250.842 81.46C250.842 81.19 251.072 80.96 251.342 80.96C251.622 80.96 251.842 81.19 251.842 81.46C251.842 81.74 251.622 81.96 251.342 81.96ZM252.962 81.96C252.692 81.96 252.452 81.74 252.452 81.46C252.452 81.19 252.692 80.96 252.962 80.96C253.232 80.96 253.462 81.19 253.462 81.46C253.462 81.74 253.232 81.96 252.962 81.96ZM258.519 79.22H259.629V80H254.539V79.22H257.739V77.08C257.739 76.3 257.189 75.75 256.409 75.75H255.019V74.97H256.409C257.619 74.97 258.519 75.88 258.519 77.08V79.22ZM262.317 79.22H262.667V80H262.207C261.767 80 261.377 79.77 261.107 79.45C260.867 79.77 260.487 80 259.927 80H259.537V79.99L259.207 79.87V79.35L259.537 79.23V79.22H259.937C260.477 79.22 260.737 78.86 260.737 78.39L260.727 73.04H261.517V78.12C261.517 78.19 261.517 78.27 261.507 78.34V78.38C261.507 78.85 261.757 79.22 262.317 79.22ZM265.304 74.02C265.054 74.02 264.834 73.81 264.824 73.55C264.804 73.27 265.034 73.02 265.324 73.02C265.594 73.02 265.814 73.24 265.824 73.51C265.824 73.79 265.594 74.03 265.304 74.02ZM265.344 74.96C266.474 74.96 267.374 75.86 267.374 77V78.09C267.374 79.14 266.524 79.99 265.464 79.99H262.604L262.264 79.87V79.34L262.604 79.21H263.814C263.454 78.93 263.214 78.47 263.214 77.96V77C263.214 75.86 264.104 74.96 265.244 74.96H265.344ZM266.594 78.01V77C266.594 76.29 266.054 75.74 265.344 75.74H265.244C264.534 75.74 263.994 76.29 263.994 77V77.96C263.994 78.65 264.534 79.21 265.184 79.21H265.394C266.054 79.21 266.594 78.68 266.594 78.01Z" fill="black"/>
<path d="M324.5 14.3334V21C324.5 21.7334 323.9 22.3334 323.167 22.3334H315.833V17C315.833 15.5267 317.027 14.3334 318.5 14.3334H324.5Z" stroke="#292D32" stroke-linecap="round" stroke-linejoin="round"/>
<path d="M329.167 22.3334V24.3334C329.167 25.44 328.273 26.3334 327.167 26.3334H326.5C326.5 25.6 325.9 25 325.167 25C324.433 25 323.833 25.6 323.833 26.3334H321.167C321.167 25.6 320.567 25 319.833 25C319.1 25 318.5 25.6 318.5 26.3334H317.833C316.727 26.3334 315.833 25.44 315.833 24.3334V22.3334H323.167C323.9 22.3334 324.5 21.7334 324.5 21V16.3334H325.727C326.207 16.3334 326.647 16.5934 326.887 17.0067L328.027 19H327.167C326.8 19 326.5 19.3 326.5 19.6667V21.6667C326.5 22.0334 326.8 22.3334 327.167 22.3334H329.167Z" stroke="#292D32" stroke-linecap="round" stroke-linejoin="round"/>
<path d="M319.833 27.6667C320.57 27.6667 321.167 27.0697 321.167 26.3333C321.167 25.597 320.57 25 319.833 25C319.097 25 318.5 25.597 318.5 26.3333C318.5 27.0697 319.097 27.6667 319.833 27.6667Z" stroke="#292D32" stroke-linecap="round" stroke-linejoin="round"/>
<path d="M325.167 27.6667C325.903 27.6667 326.5 27.0697 326.5 26.3333C326.5 25.597 325.903 25 325.167 25C324.43 25 323.833 25.597 323.833 26.3333C323.833 27.0697 324.43 27.6667 325.167 27.6667Z" stroke="#292D32" stroke-linecap="round" stroke-linejoin="round"/>
<path d="M329.167 21V22.3333H327.167C326.8 22.3333 326.5 22.0333 326.5 21.6667V19.6667C326.5 19.3 326.8 19 327.167 19H328.027L329.167 21Z" stroke="#292D32" stroke-linecap="round" stroke-linejoin="round"/>
<path d="M296.639 45.3C296.639 43.99 297.459 43.24 298.589 42.67L296.769 40.13V39.5C297.629 39.13 298.469 38.96 299.269 38.96C300.729 38.96 301.639 39.62 301.459 40.71C301.319 41.57 300.869 42.16 300.109 42.78C300.309 42.94 300.559 43.03 300.849 43.03H302.379V44H300.639C299.949 44 299.589 43.73 299.259 43.37C298.619 43.78 297.599 44.04 297.599 45.3C297.599 46.63 299.579 47.02 301.299 46.26V47.15C299.109 48.19 296.639 47.38 296.639 45.3ZM297.799 40.16V40.21L299.309 42.33C299.969 41.75 300.389 41.12 300.389 40.5C300.389 39.65 298.719 39.56 297.799 40.16ZM302.209 44V43.03H303.909C304.129 43.03 304.359 42.88 304.359 42.56V39.26H305.319V42.89C305.319 43.52 304.839 44 304.209 44H302.209ZM303.139 46.15C302.809 46.15 302.539 45.88 302.539 45.55C302.539 45.23 302.809 44.96 303.139 44.96C303.459 44.96 303.729 45.23 303.729 45.55C303.729 45.88 303.459 46.15 303.139 46.15ZM304.929 46.15C304.599 46.15 304.329 45.88 304.329 45.55C304.329 45.23 304.599 44.96 304.929 44.96C305.249 44.96 305.519 45.23 305.519 45.55C305.519 45.88 305.249 46.15 304.929 46.15ZM310.008 43.03V44H309.048V44.17C309.048 45.36 308.158 46.26 306.968 46.26H306.458V45.29H306.968C307.618 45.29 308.088 44.83 308.088 44.17V39.2H309.048V43.03H310.008ZM316.447 39H317.407V42.23C317.407 43.2 316.617 44 315.637 44C315.007 44 314.547 43.79 314.257 43.46C313.937 43.83 313.407 44.01 312.897 44.01C312.367 44.01 311.917 43.82 311.607 43.46C311.317 43.79 310.877 44 310.387 44H309.897V43.03H310.417C310.827 43.03 311.127 42.73 311.127 42.33V40H312.087V42.33C312.087 42.77 312.367 43.04 312.907 43.05C313.427 43.06 313.777 42.77 313.777 42.33V40H314.747V42.33C314.747 42.76 315.067 43.03 315.637 43.03C316.087 43.03 316.447 42.67 316.447 42.23V39ZM309.887 44L309.467 43.84V43.19L309.887 43.03V44ZM327.689 43.03V44H326.529C326.419 45.53 325.229 46.64 323.669 46.64H323.619C321.979 46.64 320.759 45.42 320.759 43.77V41.77H321.719V43.77C321.719 44.9 322.499 45.67 323.619 45.67H323.669C324.779 45.67 325.569 44.9 325.569 43.77V37.04H326.539V43.03H327.689ZM331.071 43.03H331.861V44H330.941C330.491 44 330.091 43.77 329.801 43.44C329.531 43.77 329.131 44 328.531 44H327.641L327.221 43.84V43.19L327.641 43.03H328.541C329.121 43.03 329.321 42.66 329.321 42.2V39.27H330.291V41.85C330.291 41.93 330.291 42.01 330.281 42.1V42.2C330.281 42.66 330.501 43.03 331.071 43.03ZM328.751 44.93C329.081 44.93 329.351 45.2 329.351 45.52C329.351 45.85 329.081 46.12 328.751 46.12C328.431 46.12 328.151 45.85 328.151 45.52C328.151 45.2 328.431 44.93 328.751 44.93ZM330.541 44.93C330.871 44.93 331.141 45.2 331.141 45.52C331.141 45.85 330.871 46.12 330.541 46.12C330.221 46.12 329.941 45.85 329.941 45.52C329.941 45.2 330.221 44.93 330.541 44.93ZM336.663 39.03C338.293 39.03 339.123 39.95 339.123 41.71C339.123 42.97 338.103 44 336.833 44L331.683 43.99V43.03H332.823V39.53H333.783V40.69C334.573 39.83 335.583 39.03 336.663 39.03ZM336.783 43.03C337.553 43.03 338.183 42.41 338.183 41.63C338.183 40.42 337.533 39.97 336.573 39.97C335.633 39.97 334.683 40.6 333.783 41.66V43.03H336.783ZM345.268 43.03V44H344.698V44.45C344.698 45.85 343.478 46.6 341.148 46.13V45.23C343.098 45.53 343.738 45.13 343.738 44.23V43.99H342.418C341.288 43.98 340.378 43.03 340.378 41.87V41.04C340.378 39.83 341.278 38.92 342.488 38.92H342.598C343.798 38.92 344.698 39.83 344.698 41.04V43.03H345.268ZM342.428 43.02H343.738V41.04C343.738 40.36 343.268 39.89 342.598 39.89H342.488C341.818 39.89 341.348 40.36 341.348 41.04V41.87C341.348 42.5 341.848 43.02 342.428 43.02ZM346.23 38.55C345.9 38.55 345.63 38.28 345.63 37.95C345.63 37.63 345.9 37.36 346.23 37.36C346.55 37.36 346.82 37.63 346.82 37.95C346.82 38.28 346.55 38.55 346.23 38.55ZM348.02 38.55C347.7 38.55 347.42 38.28 347.42 37.95C347.42 37.63 347.7 37.36 348.02 37.36C348.35 37.36 348.62 37.63 348.62 37.95C348.62 38.28 348.35 38.55 348.02 38.55ZM345.13 44V43.03H346.49C346.71 43.03 346.94 42.88 346.94 42.56V39.26H347.9V42.89C347.9 43.52 347.42 44 346.79 44H345.13Z" fill="black"/>
<path d="M289.968 58.01C289.698 58.01 289.468 57.78 289.468 57.5C289.468 57.23 289.698 57 289.968 57C290.248 57 290.468 57.23 290.468 57.5C290.468 57.78 290.248 58.01 289.968 58.01ZM291.598 58.01C291.318 58.01 291.088 57.78 291.088 57.5C291.088 57.23 291.318 57 291.598 57C291.868 57 292.098 57.23 292.098 57.5C292.098 57.78 291.868 58.01 291.598 58.01ZM293.628 63.22H293.878V64H293.628C293.008 64 292.508 63.7 292.228 63.23C291.848 63.68 291.308 63.96 290.588 63.96C289.498 63.96 288.618 63.04 288.618 61.93V60.99C288.618 59.83 289.478 58.96 290.638 58.96H292.778V62.36C292.778 62.87 293.128 63.22 293.628 63.22ZM291.998 62.5V59.74H290.638C289.908 59.74 289.388 60.26 289.388 60.99V61.93C289.388 62.62 289.938 63.18 290.588 63.18C291.158 63.18 291.688 62.93 291.998 62.5ZM296.968 63.22H298.568V64H293.818L293.478 63.87V63.35L293.818 63.22H295.058C294.618 62.85 294.368 62.28 294.368 61.49C294.368 58.98 296.478 58.48 298.128 59.12V59.84C296.698 59.27 295.228 59.65 295.228 61.51C295.228 62.88 295.998 63.22 296.968 63.22ZM302.15 63.22V64H301.15V64.22C301.15 65.37 300.28 66.23 299.13 66.23H298.63V65.46H299.13C299.85 65.46 300.37 64.95 300.37 64.22V59.21H301.15V63.22H302.15ZM308.621 59.02H309.401V62.34C309.401 63.26 308.651 64 307.741 64C307.091 64 306.621 63.79 306.361 63.44C306.071 63.83 305.521 64.01 305.011 64.01C304.471 64.01 304.021 63.81 303.731 63.45C303.471 63.78 303.041 64 302.571 64H302.041L301.701 63.87V63.35L302.041 63.22H302.611C303.031 63.22 303.351 62.9 303.351 62.48V60H304.121V62.48C304.121 62.94 304.411 63.22 305.021 63.24C305.591 63.25 305.971 62.93 305.971 62.48V60H306.751V62.48C306.751 62.94 307.101 63.22 307.741 63.22C308.221 63.22 308.621 62.83 308.621 62.34V59.02ZM319.154 63.22H319.424V64H319.154C318.594 64 318.124 63.72 317.894 63.28C317.564 63.82 316.964 64.16 316.244 64.16C315.434 64.16 314.864 63.94 314.414 63.44C313.804 63.47 313.454 63.87 313.454 64.43V66.59H312.674V64.43C312.674 63.51 313.294 62.81 314.174 62.7V61.02C314.174 59.83 315.054 58.95 316.244 58.95C317.434 58.95 318.314 59.83 318.314 61.02V62.37C318.314 62.87 318.664 63.22 319.154 63.22ZM316.244 63.38C317.004 63.38 317.534 62.85 317.534 62.09V61.02C317.534 60.26 317.004 59.73 316.244 59.73C315.484 59.73 314.954 60.26 314.954 61.02V62.88C315.254 63.24 315.614 63.38 316.244 63.38ZM325.185 63.22H326.345V64H319.315L318.975 63.87V63.35L319.315 63.22H324.415V62.16C324.415 61.38 323.865 60.83 323.075 60.83H320.025L319.935 60.69L321.805 57.04H322.585L321.055 60.05H323.075C324.285 60.05 325.185 60.95 325.185 62.16V63.22ZM327.331 57.04H328.111V62.97C328.111 63.56 327.661 64 327.081 64H326.211L325.881 63.87V63.35L326.211 63.22H326.861C327.101 63.22 327.331 63.05 327.331 62.73V57.04ZM333.958 59.4C333.678 59.4 333.448 59.17 333.448 58.9C333.448 58.63 333.678 58.4 333.958 58.4C334.228 58.4 334.458 58.63 334.458 58.9C334.458 59.17 334.228 59.4 333.958 59.4ZM338.248 63.22V64H337.028C337.008 65.58 335.818 66.76 334.218 66.76H334.178C332.578 66.76 331.398 65.57 331.398 63.97V61.92H332.168V63.97C332.168 65.16 332.998 65.98 334.178 65.98H334.218C335.408 65.98 336.248 65.16 336.248 63.97V59.23H337.028V63.22H338.248ZM344.453 63.22H344.783V64H344.453C343.833 64 343.333 63.67 343.113 63.17C342.783 63.64 342.243 63.96 341.623 63.96C340.953 63.96 340.333 63.71 339.893 63.26C339.643 63.71 339.163 64 338.583 64H338.183L337.843 63.87V63.35L338.183 63.22H338.583C339.083 63.22 339.433 62.87 339.433 62.36V60.99C339.433 59.83 340.303 58.96 341.463 58.96H341.563C342.733 58.96 343.593 59.83 343.593 60.99V62.36C343.593 62.87 343.953 63.22 344.453 63.22ZM341.623 63.18C342.273 63.18 342.823 62.62 342.823 61.93V60.99C342.823 60.26 342.293 59.74 341.563 59.74H341.463C340.723 59.74 340.213 60.26 340.213 60.99V62.5C340.523 62.93 341.043 63.18 341.623 63.18ZM349.158 58.36C348.888 58.36 348.658 58.13 348.658 57.86C348.658 57.59 348.888 57.35 349.158 57.35C349.438 57.35 349.658 57.59 349.658 57.86C349.658 58.13 349.438 58.36 349.158 58.36ZM351.548 63.22H352.208V64H344.677L344.347 63.87V63.35L344.677 63.22H345.498V59.6H346.268V60.86C347.068 59.94 348.078 59.09 349.188 59.09C350.728 59.09 351.548 59.88 351.548 61.85V63.22ZM350.788 63.22V61.85C350.788 60.37 350.128 59.86 349.128 59.86C348.178 59.86 347.178 60.56 346.268 61.62V63.22H350.788ZM353.808 58.54C353.538 58.54 353.308 58.31 353.308 58.04C353.308 57.77 353.538 57.53 353.808 57.53C354.078 57.53 354.308 57.77 354.308 58.04C354.308 58.31 354.078 58.54 353.808 58.54ZM351.998 64V63.22H353.028C353.268 63.22 353.498 63.05 353.498 62.73V59.26H354.278V62.97C354.278 63.56 353.828 64 353.248 64H351.998ZM304.611 79.22V80H303.361C303.291 81.54 302.121 82.67 300.551 82.67H300.511C298.911 82.67 297.731 81.48 297.731 79.87V77.83H298.501V79.87C298.501 81.06 299.331 81.89 300.511 81.89H300.551C301.741 81.89 302.581 81.06 302.581 79.87V73.04H303.361V79.22H304.611ZM307.775 79.22H308.465V80H307.675C307.225 80 306.835 79.77 306.565 79.44C306.325 79.77 305.945 80 305.385 80H304.575L304.235 79.87V79.35L304.575 79.22H305.395C305.935 79.22 306.185 78.86 306.195 78.4L306.185 75.27H306.965V78.38C306.965 78.85 307.225 79.22 307.775 79.22ZM305.645 80.92C305.925 80.92 306.145 81.15 306.145 81.42C306.145 81.7 305.925 81.93 305.645 81.93C305.375 81.93 305.145 81.7 305.145 81.42C305.145 81.15 305.375 80.92 305.645 80.92ZM307.265 80.92C307.535 80.92 307.765 81.15 307.765 81.42C307.765 81.7 307.535 81.93 307.265 81.93C306.995 81.93 306.765 81.7 306.765 81.42C306.765 81.15 306.995 80.92 307.265 80.92ZM313.144 75.09C314.684 75.09 315.494 75.92 315.494 77.7C315.494 78.97 314.464 80 313.204 80L308.294 79.99V79.22H309.454V75.6H310.224V76.81C311.014 75.94 312.054 75.09 313.144 75.09ZM313.164 79.22C314.034 79.22 314.734 78.52 314.734 77.65C314.734 76.31 314.084 75.86 313.074 75.86C312.134 75.86 311.134 76.55 310.224 77.61V79.22H313.164ZM321.525 79.22V80H320.925V80.45C320.925 81.85 319.795 82.49 317.555 82.11V81.38C319.485 81.63 320.145 81.27 320.145 80.29V79.99H318.715C317.635 79.98 316.765 79.06 316.765 77.96V77C316.765 75.84 317.625 74.96 318.795 74.96H318.895C320.065 74.96 320.925 75.84 320.925 77V79.22H321.525ZM318.735 79.21H320.145V77C320.145 76.26 319.625 75.74 318.895 75.74H318.795C318.055 75.74 317.545 76.26 317.545 77V77.96C317.545 78.65 318.085 79.21 318.735 79.21ZM322.639 74.41C322.369 74.41 322.139 74.19 322.139 73.91C322.139 73.64 322.369 73.41 322.639 73.41C322.919 73.41 323.139 73.64 323.139 73.91C323.139 74.19 322.919 74.41 322.639 74.41ZM324.269 74.41C323.989 74.41 323.759 74.19 323.759 73.91C323.759 73.64 323.989 73.41 324.269 73.41C324.539 73.41 324.769 73.64 324.769 73.91C324.769 74.19 324.539 74.41 324.269 74.41ZM324.629 79.22H325.519V80H324.529C324.079 80 323.699 79.77 323.429 79.44C323.179 79.77 322.799 80 322.239 80H321.459L321.119 79.87V79.35L321.459 79.22H322.249C322.809 79.22 323.049 78.85 323.049 78.38V75.27H323.829V78.12C323.829 78.19 323.829 78.27 323.819 78.35V78.38C323.819 78.85 324.079 79.22 324.629 79.22ZM326.564 73.04H327.344V78.97C327.344 79.56 326.894 80 326.314 80H325.444L325.114 79.87V79.35L325.444 79.22H326.094C326.334 79.22 326.564 79.05 326.564 78.73V73.04ZM329.552 80H328.772V73.04H329.552V80ZM341.346 79.22H342.426V80H340.576V75.77H339.796C339.096 75.77 338.596 76.28 338.596 76.98V79.88C338.596 81.49 337.386 82.68 335.776 82.68H335.746C334.146 82.68 332.956 81.49 332.956 79.88V77.84H333.726V79.88C333.726 81.07 334.556 81.9 335.746 81.9H335.776C336.966 81.9 337.816 81.07 337.816 79.88V76.98C337.816 75.84 338.666 74.99 339.796 74.99H341.346V79.22ZM334.886 83.24C335.156 83.24 335.386 83.47 335.386 83.74C335.386 84.02 335.156 84.24 334.886 84.24C334.606 84.24 334.376 84.02 334.376 83.74C334.376 83.47 334.606 83.24 334.886 83.24ZM336.506 83.24C336.776 83.24 336.996 83.47 336.996 83.74C336.996 84.02 336.776 84.24 336.506 84.24C336.226 84.24 335.996 84.02 335.996 83.74C335.996 83.47 336.226 83.24 336.506 83.24ZM345.078 74.02C344.828 74.02 344.608 73.81 344.598 73.55C344.578 73.27 344.808 73.02 345.098 73.02C345.368 73.02 345.588 73.24 345.598 73.51C345.598 73.79 345.368 74.03 345.078 74.02ZM345.118 74.96C346.248 74.96 347.148 75.86 347.148 77V78.09C347.148 79.14 346.298 79.99 345.238 79.99H342.378L342.038 79.87V79.34L342.378 79.21H343.588C343.228 78.93 342.988 78.47 342.988 77.96V77C342.988 75.86 343.878 74.96 345.018 74.96H345.118ZM346.368 78.01V77C346.368 76.29 345.828 75.74 345.118 75.74H345.018C344.308 75.74 343.768 76.29 343.768 77V77.96C343.768 78.65 344.308 79.21 344.958 79.21H345.168C345.828 79.21 346.368 78.68 346.368 78.01Z" fill="black"/>
</g>
<defs>
<clipPath id="clip0_40_2836">
<rect width="375" height="98" fill="white"/>
</clipPath>
</defs>
</svg>
