<svg width="26" height="26" viewBox="0 0 26 26" fill="none" xmlns="http://www.w3.org/2000/svg">
<path d="M25 13C25 19.6274 19.6274 25 13 25C6.37258 25 1 19.6274 1 13C1 6.37258 6.37258 1 13 1C19.6274 1 25 6.37258 25 13Z" fill="#D7E3DC"/>
<path d="M12.6494 7.36548C12.5028 7.17172 12.3836 6.92345 12.2783 6.66333C12.1715 6.39943 12.0681 6.09622 11.9639 5.77954C11.7525 5.13717 11.5294 4.42413 11.2227 3.73853L11.085 3.43091L11.3604 3.23657C11.6514 3.03174 11.7746 2.65185 11.9297 2.14966C11.9972 1.9312 12.0807 1.66279 12.2139 1.45337C12.3638 1.21769 12.6066 1.01294 12.9756 1.01294C13.3172 1.01294 13.5635 1.17738 13.7314 1.39868C13.8807 1.59538 13.9768 1.84686 14.0527 2.06177C14.2213 2.53862 14.3473 2.97063 14.6514 3.28931L14.8467 3.49341L14.7236 3.74927C14.4712 4.27383 14.2619 4.99633 14.04 5.70142C13.9322 6.04426 13.821 6.38207 13.7031 6.66821C13.5904 6.94179 13.451 7.22291 13.2646 7.40845L12.9316 7.73853L12.6494 7.36548Z" fill="#9AAFA2" stroke="#5E7B63" stroke-width="0.818182"/>
<path d="M18.8188 12.6646C19.0025 12.5055 19.2376 12.3759 19.4829 12.2622C19.7316 12.1469 20.017 12.0359 20.313 11.9243C20.9142 11.6976 21.5761 11.4589 22.2134 11.1323L22.5503 10.9604L22.7485 11.2827C22.9405 11.5953 23.2866 11.7227 23.7515 11.8872C23.9549 11.9592 24.2133 12.0503 24.4146 12.1968C24.6451 12.3647 24.8179 12.6171 24.8179 12.9741C24.8178 13.3065 24.6793 13.559 24.4683 13.7427C24.2805 13.906 24.0385 14.0105 23.8364 14.0923C23.3897 14.2732 22.9968 14.4056 22.7026 14.7271L22.4849 14.9644L22.2026 14.8091C21.7171 14.5413 21.048 14.3191 20.3862 14.0806C20.0657 13.965 19.748 13.8447 19.478 13.7173C19.2188 13.5949 18.9524 13.4427 18.7778 13.2417L18.5093 12.9331L18.8188 12.6646Z" fill="#9AAFA2" stroke="#5E7B63" stroke-width="0.818182"/>
<path d="M7.13184 13.2822C6.94823 13.4413 6.71309 13.5708 6.46777 13.6846C6.21911 13.7998 5.93367 13.9109 5.6377 14.0225C5.03647 14.2491 4.37455 14.4879 3.7373 14.8145L3.40039 14.9863L3.20215 14.6641C3.0102 14.3515 2.66405 14.2241 2.19922 14.0596C1.99575 13.9876 1.73736 13.8965 1.53613 13.75C1.30556 13.582 1.13281 13.3297 1.13281 12.9727C1.13291 12.6403 1.27136 12.3878 1.48242 12.2041C1.67022 12.0408 1.91222 11.9363 2.11426 11.8545C2.56095 11.6736 2.95391 11.5412 3.24805 11.2197L3.46582 10.9824L3.74805 11.1377C4.2336 11.4055 4.90272 11.6277 5.56445 11.8662C5.88499 11.9818 6.20271 12.1021 6.47266 12.2295C6.73185 12.3519 6.99825 12.5041 7.17285 12.7051L7.44141 13.0137L7.13184 13.2822Z" fill="#9AAFA2" stroke="#5E7B63" stroke-width="0.818182"/>
<path d="M13.3018 18.5291C13.4483 18.7228 13.5676 18.9711 13.6729 19.2312C13.7796 19.4951 13.8831 19.7983 13.9873 20.115C14.1987 20.7574 14.4218 21.4704 14.7285 22.156L14.8662 22.4636L14.5908 22.658C14.2998 22.8628 14.1766 23.2427 14.0215 23.7449C13.954 23.9633 13.8705 24.2317 13.7373 24.4412C13.5874 24.6768 13.3446 24.8816 12.9756 24.8816C12.634 24.8816 12.3877 24.7172 12.2197 24.4958C12.0704 24.2991 11.9744 24.0477 11.8984 23.8328C11.7299 23.3559 11.6039 22.9239 11.2998 22.6052L11.1045 22.4011L11.2275 22.1453C11.48 21.6207 11.6893 20.8982 11.9111 20.1931C12.019 19.8503 12.1301 19.5125 12.248 19.2263C12.3608 18.9527 12.5002 18.6716 12.6865 18.4861L13.0195 18.156L13.3018 18.5291Z" fill="#9AAFA2" stroke="#5E7B63" stroke-width="0.818182"/>
<path d="M17.1578 16.7228C17.3913 16.749 17.6423 16.8349 17.8898 16.9397C18.1407 17.0459 18.4144 17.1836 18.6972 17.3286C19.2716 17.6231 19.8992 17.9564 20.5673 18.2084L20.8926 18.3312L20.8226 18.693C20.7521 19.0583 20.9141 19.4148 21.1353 19.8854C21.2318 20.0906 21.3525 20.3471 21.3973 20.5996C21.4483 20.8868 21.4074 21.2052 21.16 21.4702C20.9299 21.7165 20.6557 21.789 20.3873 21.7592C20.1492 21.7328 19.9127 21.6255 19.7166 21.5309C19.2816 21.3209 18.9114 21.1137 18.4885 21.1184L18.1972 21.122L18.1085 20.8244C17.9413 20.2649 17.6128 19.5986 17.3032 18.9306C17.1528 18.6063 17.008 18.2817 16.9018 17.9887C16.8001 17.708 16.7125 17.4015 16.7218 17.1281L16.7378 16.6757L17.1578 16.7228Z" fill="#9AAFA2" stroke="#5E7B63" stroke-width="0.818182"/>
<path d="M16.7241 8.44939C16.7486 8.19948 16.8288 7.9308 16.9267 7.66588C17.026 7.39743 17.1546 7.10446 17.2901 6.80173C17.5652 6.18697 17.8767 5.51526 18.1121 4.80014L18.2268 4.45191L18.5648 4.52684C18.9061 4.60229 19.2392 4.4289 19.6788 4.19217C19.8706 4.0889 20.1103 3.95972 20.3462 3.91173C20.6145 3.85719 20.9119 3.90095 21.1596 4.16577C21.3896 4.41201 21.4574 4.70547 21.4296 4.99281C21.4049 5.24759 21.3047 5.5007 21.2162 5.71067C21.0201 6.17623 20.8264 6.57252 20.8309 7.02508L20.8342 7.33692L20.5562 7.43182C20.0335 7.61082 19.4109 7.9624 18.7868 8.29383C18.4838 8.45471 18.1805 8.60976 17.9068 8.7234C17.6446 8.83222 17.3582 8.92599 17.1027 8.91607L16.6801 8.89894L16.7241 8.44939Z" fill="#9AAFA2" stroke="#5E7B63" stroke-width="0.818182"/>
<path d="M8.60048 9.17714C8.367 9.15086 8.11597 9.06501 7.86846 8.96021C7.61765 8.85399 7.34393 8.71632 7.06109 8.57131C6.48672 8.27682 5.85915 7.94348 5.19102 7.69146L4.86568 7.56873L4.93568 7.20694C5.00617 6.8416 4.84417 6.48514 4.623 6.01455C4.52652 5.80927 4.40583 5.55277 4.36099 5.30026C4.31003 5.01311 4.35091 4.69474 4.59833 4.42969C4.82839 4.18345 5.10257 4.11094 5.37103 4.14069C5.60907 4.16708 5.84555 4.27435 6.04172 4.36904C6.47669 4.57899 6.84694 4.78625 7.26977 4.78148L7.56111 4.77792L7.64978 5.07548C7.81702 5.63498 8.1455 6.3013 8.45514 6.96932C8.60545 7.2936 8.75032 7.61823 8.85649 7.91125C8.95815 8.19186 9.04577 8.49844 9.0365 8.77182L9.0205 9.22423L8.60048 9.17714Z" fill="#9AAFA2" stroke="#5E7B63" stroke-width="0.818182"/>
<path d="M8.78815 16.9227C8.7636 17.1726 8.68339 17.4413 8.58548 17.7062C8.48624 17.9746 8.35761 18.2676 8.22213 18.5703C7.947 19.1851 7.63555 19.8568 7.4001 20.5719L7.28543 20.9202L6.94742 20.8452C6.60608 20.7698 6.27304 20.9432 5.83337 21.1799C5.64158 21.2832 5.40194 21.4123 5.16602 21.4603C4.89773 21.5149 4.60029 21.4711 4.35265 21.2063C4.12259 20.9601 4.05484 20.6666 4.08264 20.3793C4.1073 20.1245 4.20752 19.8714 4.29598 19.6614C4.49214 19.1958 4.68578 18.7996 4.68133 18.347L4.678 18.0352L4.95601 17.9402C5.47874 17.7612 6.10128 17.4097 6.72541 17.0782C7.02837 16.9174 7.33167 16.7623 7.60544 16.6487C7.86761 16.5399 8.15405 16.4461 8.40947 16.456L8.83215 16.4731L8.78815 16.9227Z" fill="#9AAFA2" stroke="#5E7B63" stroke-width="0.818182"/>
<ellipse cx="0.714579" cy="0.738462" rx="0.714579" ry="0.738462" transform="matrix(-1 0 0 1 23.0781 7.9624)" fill="#FFB300"/>
<ellipse cx="0.714579" cy="0.73846" rx="0.714579" ry="0.73846" transform="matrix(-1 0 0 1 22.5854 15.98)" fill="#FFB300"/>
<ellipse cx="0.714579" cy="0.73846" rx="0.714579" ry="0.73846" transform="matrix(-1 0 0 1 17.4106 21.0439)" fill="#FFB300"/>
<ellipse cx="0.714579" cy="0.738462" rx="0.714579" ry="0.738462" transform="matrix(-1 0 0 1 9.87061 20.9385)" fill="#FFB300"/>
<ellipse cx="0.714579" cy="0.738462" rx="0.714579" ry="0.738462" transform="matrix(-1 0 0 1 4.59766 15.8745)" fill="#FFB300"/>
<ellipse cx="0.714579" cy="0.738462" rx="0.714579" ry="0.738462" transform="matrix(-1 0 0 1 4.49902 8.49023)" fill="#FFB300"/>
<ellipse cx="0.714579" cy="0.738461" rx="0.714579" ry="0.738461" transform="matrix(-1 0 0 1 10.0186 3.32031)" fill="#FFB300"/>
<ellipse cx="0.714578" cy="0.738462" rx="0.714578" ry="0.738462" transform="matrix(-1 0 0 1 17.3613 3.16211)" fill="#FFB300"/>
<ellipse cx="1.99589" cy="2.18901" rx="1.99589" ry="2.18901" transform="matrix(-1 0 0 1 14.9956 10.6001)" fill="#FFB300"/>
<path d="M13.6863 16.4376C14.0843 15.7996 13.5393 14.8544 14.0296 14.637C14.5199 14.4196 14.7722 15.3463 15.4619 15.6504C15.3988 16.5355 15.6669 17.9002 15.4725 18.3655C15.0271 18.1015 14.454 17.1852 13.6863 16.4376Z" fill="#787374"/>
<path d="M15.7229 14.9497C15.5829 14.1973 14.5731 13.9414 14.7762 13.4166C14.9793 12.8918 15.7698 13.3561 16.4585 13.0491C16.9986 13.7228 18.0897 14.4849 18.2597 14.961C17.7703 15.1114 16.7597 14.8972 15.7229 14.9497Z" fill="#787374"/>
<path d="M12.5261 9.17248C12.1281 9.81048 12.6731 10.7557 12.1828 10.9731C11.6925 11.1905 11.4402 10.2638 10.7505 9.95972C10.8136 9.07457 10.5455 7.70988 10.7399 7.24457C11.1853 7.50863 11.7584 8.42493 12.5261 9.17248Z" fill="#787374"/>
<path d="M15.3138 9.95984C14.6109 10.1098 14.3718 11.1906 13.8814 10.9732C13.3911 10.7558 13.8249 9.90968 13.5381 9.17261C14.1675 8.59448 14.8795 7.4266 15.3244 7.24469C15.4649 7.76854 15.2647 8.85016 15.3138 9.95984Z" fill="#787374"/>
<path d="M10.7502 15.6512C11.4531 15.5013 11.6922 14.4205 12.1825 14.6379C12.6729 14.8553 12.239 15.7014 12.5259 16.4385C11.8965 17.0166 11.1845 18.1845 10.7396 18.3664C10.5991 17.8425 10.7992 16.7609 10.7502 15.6512Z" fill="#787374"/>
<path d="M16.4581 12.2818C15.862 11.8559 14.9789 12.4392 14.7758 11.9144C14.5727 11.3895 15.4385 11.1196 15.7226 10.3813C16.5496 10.4488 17.8246 10.1619 18.2594 10.37C18.0126 10.8467 17.1565 11.4601 16.4581 12.2818Z" fill="#787374"/>
<path d="M9.71962 13.4704C10.3157 13.8963 11.1988 13.313 11.4019 13.8378C11.605 14.3627 10.7392 14.6326 10.4551 15.3709C9.62814 15.3034 8.35311 15.5903 7.91838 15.3822C8.16509 14.9055 9.02119 14.2921 9.71962 13.4704Z" fill="#787374"/>
<path d="M10.2585 10.8035C10.3986 11.5558 11.4084 11.8117 11.2053 12.3366C11.0022 12.8614 10.2116 12.397 9.52299 12.704C8.98286 12.0304 7.89171 11.2683 7.72176 10.7922C8.21119 10.6417 9.22174 10.856 10.2585 10.8035Z" fill="#787374"/>
</svg>
