<svg width="45" height="46" viewBox="0 0 45 46" fill="none" xmlns="http://www.w3.org/2000/svg">
<path d="M45 23.4591C45 35.8629 34.9264 45.9182 22.5 45.9182C10.0736 45.9182 0 35.8629 0 23.4591C0 11.0553 10.0736 1 22.5 1C34.9264 1 45 11.0553 45 23.4591Z" fill="#D7E3DC"/>
<path d="M22.1281 12.6987C21.8818 12.3738 21.6714 11.9443 21.4777 11.4663C21.2824 10.9845 21.0931 10.4266 20.8976 9.8335C20.5036 8.63842 20.0776 7.2838 19.4933 5.97998L19.3556 5.67237L19.632 5.47803C20.2968 5.0108 20.5551 4.16304 20.8351 3.2583C20.965 2.83847 21.1081 2.38473 21.3273 2.04053C21.5633 1.67 21.9188 1.38037 22.4542 1.38037C22.9619 1.38049 23.3255 1.6188 23.5861 1.96143C23.828 2.27965 23.9912 2.70113 24.1349 3.10694C24.439 3.9655 24.7011 4.86549 25.337 5.53077L25.5323 5.73584L25.4093 5.99073C24.9214 7.00244 24.5191 8.39034 24.1085 9.69287C23.9063 10.3344 23.7022 10.954 23.4874 11.4741C23.2779 11.9817 23.0374 12.4485 22.7423 12.7417L22.4103 13.0718L22.1281 12.6987Z" fill="#9AAFA2" stroke="#5E7B63" stroke-width="0.818182"/>
<path d="M33.6443 23.1007C33.951 22.8353 34.3566 22.6086 34.8064 22.4005C35.2593 22.191 35.7826 21.9883 36.3376 21.7794C37.4574 21.358 38.7219 20.9041 39.9392 20.2813L40.2761 20.1095L40.4744 20.4308C40.9123 21.1425 41.6969 21.4143 42.5398 21.712C42.9323 21.8507 43.3646 22.006 43.6921 22.2442C44.0487 22.5036 44.3004 22.8746 44.3005 23.4093C44.3005 23.9201 44.0927 24.2988 43.7673 24.5812C43.4656 24.843 43.0654 25.0199 42.6843 25.1739C41.8795 25.4993 41.0467 25.7748 40.4275 26.4503L40.2097 26.6876L39.9285 26.5323C38.986 26.0135 37.6924 25.5853 36.4705 25.1456C35.8699 24.9295 35.2879 24.7102 34.7986 24.4796C34.32 24.2541 33.879 23.9946 33.6033 23.6778L33.3337 23.3692L33.6443 23.1007Z" fill="#9AAFA2" stroke="#5E7B63" stroke-width="0.818182"/>
<path d="M11.2634 23.7188C10.9567 23.9841 10.5511 24.2109 10.1013 24.419C9.64846 24.6285 9.12512 24.8312 8.57007 25.0401C7.45033 25.4615 6.18581 25.9154 4.96851 26.5381L4.63159 26.71L4.43335 26.3887C3.99546 25.677 3.2108 25.4052 2.36792 25.1075C1.97542 24.9688 1.54315 24.8134 1.21558 24.5752C0.859027 24.3158 0.60732 23.9449 0.607178 23.4102C0.607178 22.8994 0.81503 22.5207 1.14038 22.2383C1.44214 21.9764 1.84234 21.7996 2.22339 21.6455C3.02819 21.3202 3.861 21.0447 4.48022 20.3692L4.698 20.1319L4.97925 20.2871C5.92176 20.806 7.21534 21.2342 8.43726 21.6739C9.03786 21.89 9.61983 22.1093 10.1091 22.3399C10.5877 22.5654 11.0287 22.8249 11.3044 23.1416L11.574 23.4502L11.2634 23.7188Z" fill="#9AAFA2" stroke="#5E7B63" stroke-width="0.818182"/>
<path d="M22.7798 34.022C23.0261 34.347 23.2364 34.7764 23.4302 35.2544C23.6255 35.7362 23.8147 36.2941 24.0103 36.8872C24.4043 38.0823 24.8302 39.4369 25.4146 40.7407L25.5522 41.0484L25.2759 41.2427C24.611 41.7099 24.3527 42.5577 24.0728 43.4624C23.9428 43.8823 23.7998 44.336 23.5806 44.6802C23.3445 45.0507 22.9891 45.3403 22.4536 45.3403C21.9459 45.3402 21.5824 45.1019 21.3218 44.7593C21.0798 44.4411 20.9167 44.0196 20.7729 43.6138C20.4689 42.7552 20.2067 41.8552 19.5708 41.19L19.3755 40.9849L19.4985 40.73C19.9865 39.7183 20.3887 38.3304 20.7993 37.0278C21.0015 36.3863 21.2057 35.7667 21.4204 35.2466C21.63 34.7391 21.8704 34.2723 22.1655 33.979L22.4976 33.6489L22.7798 34.022Z" fill="#9AAFA2" stroke="#5E7B63" stroke-width="0.818182"/>
<path d="M30.2604 30.7925C30.6514 30.8364 31.0865 30.9818 31.5411 31.1739C31.999 31.3675 32.5024 31.6195 33.0332 31.8912C34.1034 32.4388 35.2995 33.0739 36.5741 33.5538L36.8998 33.6765L36.8297 34.0379C36.6685 34.8712 37.0456 35.6615 37.4457 36.5112C37.6314 36.9057 37.8321 37.3375 37.9055 37.7497C37.985 38.1969 37.9209 38.6601 37.5551 39.0509C37.2072 39.4224 36.8011 39.5309 36.3866 39.4851C36.0025 39.4425 35.606 39.2665 35.2355 39.0879C34.4515 38.7102 33.6751 38.2737 32.7877 38.2837L32.496 38.2873L32.4073 37.9899C32.0834 36.9085 31.4507 35.6255 30.8784 34.393C30.5968 33.7866 30.3305 33.1931 30.1377 32.6619C29.9493 32.1429 29.8093 31.6289 29.824 31.1974L29.84 30.7454L30.2604 30.7925Z" fill="#9AAFA2" stroke="#5E7B63" stroke-width="0.818182"/>
<path d="M29.8259 14.9798C29.867 14.5622 30.0031 14.0973 30.1829 13.6116C30.3641 13.1224 30.6 12.5846 30.8543 12.0174C31.3669 10.8741 31.9613 9.5962 32.4105 8.23439L32.5253 7.88646L32.8636 7.96132C33.6436 8.13359 34.3833 7.7307 35.1786 7.30325C35.5479 7.10479 35.952 6.89045 36.3378 6.81201C36.7564 6.727 37.19 6.79558 37.5557 7.18632C37.9035 7.55808 38.005 7.99193 37.9621 8.43474C37.9223 8.84509 37.7575 9.26875 37.5904 9.66462C37.2368 10.5022 36.8283 11.3317 36.8377 12.2798L36.841 12.5914L36.5627 12.6862C35.5504 13.0322 34.3496 13.7081 33.196 14.3196C32.6284 14.6205 32.0729 14.905 31.5757 15.111C31.0899 15.3123 30.6088 15.4618 30.205 15.4461L29.7819 15.429L29.8259 14.9798Z" fill="#9AAFA2" stroke="#5E7B63" stroke-width="0.818182"/>
<path d="M14.2863 15.9377C13.8954 15.8938 13.4602 15.7484 13.0057 15.5563C12.5477 15.3627 12.0444 15.1107 11.5135 14.839C10.4434 14.2913 9.24725 13.6563 7.97261 13.1763L7.64695 13.0537L7.71702 12.6922C7.87827 11.859 7.50116 11.0686 7.10107 10.2189C6.91531 9.82442 6.71469 9.39266 6.64127 8.98049C6.56171 8.53323 6.62589 8.07005 6.99162 7.67931C7.33959 7.30774 7.74567 7.19926 8.16014 7.24511C8.54422 7.2877 8.94076 7.46371 9.3113 7.64224C10.0953 8.01998 10.8717 8.45645 11.7591 8.44647L12.0507 8.44291L12.1395 8.74022C12.4633 9.82171 13.096 11.1047 13.6684 12.3372C13.9499 12.9436 14.2163 13.537 14.4091 14.0683C14.5975 14.5873 14.7374 15.1013 14.7227 15.5327L14.7067 15.9848L14.2863 15.9377Z" fill="#9AAFA2" stroke="#5E7B63" stroke-width="0.818182"/>
<path d="M14.2587 30.7631C14.2176 31.1808 14.0815 31.6457 13.9016 32.1313C13.7205 32.6206 13.4846 33.1584 13.2303 33.7255C12.7177 34.8688 12.1233 36.1467 11.6741 37.5085L11.5593 37.8565L11.2209 37.7816C10.441 37.6093 9.70127 38.0122 8.90594 38.4397C8.53669 38.6382 8.13256 38.8525 7.74678 38.9309C7.32814 39.0159 6.89461 38.9474 6.52888 38.5566C6.18109 38.1849 6.07955 37.751 6.12247 37.3082C6.16234 36.8979 6.32708 36.4742 6.49418 36.0783C6.84775 35.2407 7.25628 34.4112 7.24694 33.4631L7.2436 33.1516L7.52188 33.0567C8.53415 32.7108 9.73499 32.0348 10.8886 31.4233C11.4562 31.1225 12.0117 30.8379 12.5089 30.6319C12.9947 30.4306 13.4758 30.2811 13.8796 30.2968L14.3027 30.3139L14.2587 30.7631Z" fill="#9AAFA2" stroke="#5E7B63" stroke-width="0.818182"/>
<ellipse cx="1.33984" cy="1.3821" rx="1.33984" ry="1.3821" transform="matrix(-1 0 0 1 41.3965 14.0312)" fill="#FFB300"/>
<ellipse cx="1.33984" cy="1.38209" rx="1.33984" ry="1.38209" transform="matrix(-1 0 0 1 40.4722 29.0368)" fill="#FFB300"/>
<ellipse cx="1.33984" cy="1.3821" rx="1.33984" ry="1.3821" transform="matrix(-1 0 0 1 30.77 38.5141)" fill="#FFB300"/>
<ellipse cx="1.33984" cy="1.3821" rx="1.33984" ry="1.3821" transform="matrix(-1 0 0 1 16.6323 38.3166)" fill="#FFB300"/>
<ellipse cx="1.33984" cy="1.3821" rx="1.33984" ry="1.3821" transform="matrix(-1 0 0 1 6.74536 28.8394)" fill="#FFB300"/>
<ellipse cx="1.33984" cy="1.3821" rx="1.33984" ry="1.3821" transform="matrix(-1 0 0 1 6.56055 15.0184)" fill="#FFB300"/>
<ellipse cx="1.33984" cy="1.3821" rx="1.33984" ry="1.3821" transform="matrix(-1 0 0 1 16.9097 5.34374)" fill="#FFB300"/>
<ellipse cx="1.33983" cy="1.3821" rx="1.33983" ry="1.3821" transform="matrix(-1 0 0 1 30.6775 5.04757)" fill="#FFB300"/>
<ellipse cx="3.7423" cy="4.09693" rx="3.7423" ry="4.09693" transform="matrix(-1 0 0 1 26.2422 18.9673)" fill="#FFB300"/>
<path d="M23.7865 29.8929C24.5327 28.6988 23.5109 26.9298 24.4302 26.5229C25.3496 26.1161 25.8225 27.8504 27.1159 28.4195C26.9975 30.0762 27.5002 32.6303 27.1357 33.5012C26.3005 33.007 25.2261 31.292 23.7865 29.8929Z" fill="#787374"/>
<path d="M27.6049 27.1072C27.3422 25.6991 25.4488 25.2202 25.8296 24.2379C26.2105 23.2557 27.6927 24.1247 28.9839 23.5501C29.9967 24.8109 32.0426 26.2373 32.3612 27.1284C31.4436 27.4099 29.5488 27.009 27.6049 27.1072Z" fill="#787374"/>
<path d="M21.6121 16.2958C20.8658 17.4899 21.8877 19.259 20.9683 19.6658C20.0489 20.0727 19.576 18.3383 18.2827 17.7692C18.401 16.1126 17.8984 13.5584 18.2628 12.6875C19.098 13.1818 20.1725 14.8967 21.6121 16.2958Z" fill="#787374"/>
<path d="M26.8387 17.7692C25.5207 18.0498 25.0724 20.0727 24.1531 19.6658C23.2337 19.259 24.0471 17.6753 23.5093 16.2958C24.6894 15.2138 26.0244 13.028 26.8585 12.6876C27.122 13.668 26.7467 15.6923 26.8387 17.7692Z" fill="#787374"/>
<path d="M18.2824 28.4195C19.6004 28.139 20.0487 26.1161 20.968 26.5229C21.8874 26.9298 21.074 28.5134 21.6118 29.8929C20.4317 30.9749 19.0967 33.1607 18.2626 33.5012C17.9991 32.5208 18.3744 30.4964 18.2824 28.4195Z" fill="#787374"/>
<path d="M28.9841 22.1153C27.8664 21.3181 26.2106 22.4098 25.8298 21.4276C25.449 20.4453 27.0723 19.94 27.605 18.5583C29.1556 18.6847 31.5463 18.1477 32.3614 18.5371C31.8988 19.4294 30.2936 20.5773 28.9841 22.1153Z" fill="#787374"/>
<path d="M16.3494 24.3399C17.467 25.1372 19.1229 24.0454 19.5037 25.0277C19.8845 26.0099 18.2612 26.5152 17.7285 27.897C16.1779 27.7705 13.7872 28.3076 12.9721 27.9182C13.4347 27.0258 15.0398 25.8779 16.3494 24.3399Z" fill="#787374"/>
<path d="M17.3593 19.348C17.6219 20.7561 19.5153 21.2351 19.1345 22.2173C18.7537 23.1996 17.2714 22.3305 15.9802 22.9051C14.9674 21.6443 12.9215 20.218 12.6029 19.3268C13.5205 19.0453 15.4153 19.4463 17.3593 19.348Z" fill="#787374"/>
</svg>
