<svg width="34" height="34" viewBox="0 0 34 34" fill="none" xmlns="http://www.w3.org/2000/svg">
<path d="M2.83333 2.83333H5.29834C6.82834 2.83333 8.0325 4.15083 7.905 5.66667L6.72916 19.7767C6.53083 22.0858 8.35832 24.0692 10.6817 24.0692H25.7692C27.8092 24.0692 29.5942 22.3975 29.75 20.3717L30.515 9.74667C30.685 7.39501 28.9 5.48249 26.5342 5.48249H8.24501" stroke="#5B6B81" stroke-width="2" stroke-miterlimit="10" stroke-linecap="round" stroke-linejoin="round"/>
<path d="M23.0208 31.1667C23.9988 31.1667 24.7917 30.3738 24.7917 29.3958C24.7917 28.4178 23.9988 27.625 23.0208 27.625C22.0428 27.625 21.25 28.4178 21.25 29.3958C21.25 30.3738 22.0428 31.1667 23.0208 31.1667Z" stroke="#5B6B81" stroke-width="2" stroke-miterlimit="10" stroke-linecap="round" stroke-linejoin="round"/>
<path d="M11.6875 31.1667C12.6655 31.1667 13.4583 30.3738 13.4583 29.3958C13.4583 28.4178 12.6655 27.625 11.6875 27.625C10.7095 27.625 9.91667 28.4178 9.91667 29.3958C9.91667 30.3738 10.7095 31.1667 11.6875 31.1667Z" stroke="#5B6B81" stroke-width="2" stroke-miterlimit="10" stroke-linecap="round" stroke-linejoin="round"/>
<path d="M12.75 11.3333H29.75" stroke="#5B6B81" stroke-width="2" stroke-miterlimit="10" stroke-linecap="round" stroke-linejoin="round"/>
</svg>
